<svg width="30" height="30" viewBox="0 0 30 30" fill="none" xmlns="http://www.w3.org/2000/svg">
<path d="M9.49015 20.1088V11.964H7.6073V9.87677H12.0883V20.1088H9.49015Z" fill="white"/>
<path d="M21.8527 12.5186C21.8527 13.4089 21.3711 14.1971 20.5683 14.6351C21.6921 15.102 22.3928 16.0801 22.3928 17.2185C22.3928 19.0576 20.758 20.2253 18.2037 20.2253C15.6494 20.2253 14.0146 19.0722 14.0146 17.2624C14.0146 16.0946 14.7736 15.102 15.9559 14.6351C15.0947 14.1533 14.5401 13.3361 14.5401 12.4457C14.5401 10.8108 15.9706 9.7746 18.1891 9.7746C20.4369 9.7746 21.8527 10.8401 21.8527 12.5186ZM16.4667 16.9997C16.4667 17.8609 17.0798 18.3426 18.2037 18.3426C19.3276 18.3426 19.9552 17.8756 19.9552 16.9997C19.9552 16.1532 19.3276 15.6714 18.2037 15.6714C17.0798 15.6714 16.4667 16.1531 16.4667 16.9997ZM16.7295 12.6646C16.7295 13.3945 17.255 13.803 18.2037 13.803C19.1524 13.803 19.6779 13.3944 19.6779 12.6646C19.6779 11.9058 19.1524 11.4824 18.2037 11.4824C17.2549 11.4824 16.7295 11.9058 16.7295 12.6646Z" fill="white"/>
<path d="M26.7161 11.0318C27.148 12.3067 27.3671 13.6401 27.3671 15C27.3671 21.8192 21.8193 27.367 15.0001 27.367C8.18085 27.367 2.63292 21.8192 2.63292 15C2.63292 8.18073 8.18076 2.63307 15 2.63307C16.3601 2.63307 17.6935 2.85201 18.9682 3.28413V0.532015C17.6807 0.179072 16.3509 0 15.0001 0C6.72912 0 0.00012207 6.729 0.00012207 15C0.00012207 23.2711 6.72912 30.0001 15.0001 30.0001C23.271 30.0001 29.9999 23.2711 29.9999 15C29.9999 13.6493 29.821 12.3194 29.468 11.0318H26.7161Z" fill="white"/>
<path d="M25.9676 4.02407V1.14789H23.8993V4.02407H21.0404V6.0921H23.8993V8.9682H25.9676V6.0921H28.8436V4.02407H25.9676Z" fill="white"/>
</svg>
