<svg width="180" height="60" viewBox="0 0 180 60" fill="none" xmlns="http://www.w3.org/2000/svg">
<g clip-path="url(#clip0_2_14687)">
<path d="M165.202 6.53003e-05H14.302C13.752 6.53003e-05 13.2085 6.53004e-05 12.6599 0.0030653C12.2007 0.0060653 11.7451 0.0147803 11.2815 0.0221153C10.2743 0.033968 9.26941 0.12258 8.27565 0.28718C7.28329 0.455364 6.32201 0.772439 5.42433 1.22768C4.52775 1.68677 3.70852 2.28332 2.99636 2.99567C2.28045 3.70602 1.68369 4.52709 1.22903 5.42731C0.7731 6.32573 0.456961 7.28847 0.291525 8.28229C0.124516 9.27484 0.0346476 10.2788 0.022725 11.2853C0.008805 11.7452 0.007335 12.2066 0 12.6666V47.338C0.007335 47.8037 0.008805 48.2549 0.022725 48.7208C0.0346512 49.7272 0.12452 50.7312 0.291525 51.7237C0.456504 52.7181 0.772662 53.6814 1.22903 54.5801C1.68349 55.4774 2.28033 56.2952 2.99636 57.0016C3.70582 57.7171 4.52558 58.314 5.42433 58.7696C6.322 59.2261 7.28318 59.545 8.27565 59.7158C9.26958 59.8791 10.2743 59.9678 11.2815 59.981C11.7451 59.9912 12.2007 59.9971 12.6599 59.9971C13.2085 60.0001 13.752 60.0001 14.302 60.0001H165.202C165.741 60.0001 166.289 60.0001 166.828 59.9971C167.285 59.9971 167.754 59.9912 168.211 59.981C169.216 59.9685 170.219 59.8798 171.211 59.7158C172.207 59.5438 173.171 59.225 174.073 58.7696C174.971 58.3138 175.79 57.7168 176.499 57.0016C177.213 56.2924 177.811 55.4753 178.272 54.5801C178.724 53.6807 179.038 52.7175 179.2 51.7237C179.367 50.731 179.46 49.7273 179.479 48.7208C179.484 48.2549 179.484 47.8037 179.484 47.338C179.496 46.793 179.496 46.2511 179.496 45.6973V14.3043C179.496 13.7549 179.496 13.21 179.484 12.6666C179.484 12.2066 179.484 11.7452 179.479 11.2852C179.46 10.2787 179.367 9.27492 179.2 8.28223C179.037 7.28899 178.724 6.32632 178.272 5.42725C177.346 3.62286 175.877 2.1541 174.073 1.22755C173.171 0.773416 172.207 0.456426 171.211 0.287045C170.219 0.121719 169.216 0.0330769 168.211 0.0219053C167.754 0.0145853 167.285 0.0057953 166.828 0.0028703C166.289 -0.0001297 165.741 -0.0001297 165.202 -0.0001297V6.53003e-05Z" fill="#A6A6A6"/>
<path d="M12.6672 58.6875C12.2102 58.6875 11.7642 58.6816 11.3108 58.6714C10.3714 58.6592 9.43432 58.5774 8.50706 58.4268C7.64245 58.2779 6.80487 58.0009 6.02195 57.6049C5.24622 57.2123 4.53868 56.6974 3.92645 56.08C3.30536 55.47 2.78828 54.7624 2.39569 53.9853C1.99877 53.2032 1.72408 52.3648 1.58119 51.4995C1.42688 50.5697 1.34339 49.6295 1.33144 48.687C1.32193 48.3706 1.30948 47.3173 1.30948 47.3173V12.6665C1.30948 12.6665 1.32274 11.6294 1.33151 11.3247C1.34295 10.3837 1.42596 9.44497 1.57981 8.51659C1.72297 7.64887 1.99787 6.80812 2.395 6.02344C2.78615 5.24691 3.30036 4.53878 3.91771 3.92651C4.53436 3.30842 5.24416 2.7909 6.02122 2.39281C6.80234 1.99813 7.63833 1.72309 8.5012 1.5769C9.4315 1.42475 10.3719 1.34249 11.3145 1.33081L12.6679 1.31249H166.821L168.19 1.33154C169.124 1.34264 170.056 1.42417 170.978 1.57543C171.85 1.72345 172.694 2.00042 173.484 2.3972C175.041 3.19947 176.308 4.46874 177.107 6.0271C177.498 6.80636 177.768 7.64025 177.91 8.50048C178.065 9.43648 178.153 10.3826 178.17 11.3313C178.175 11.7561 178.175 12.2124 178.175 12.6665C178.187 13.229 178.187 13.7644 178.187 14.3042V45.6972C178.187 46.2421 178.187 46.7739 178.175 47.31C178.175 47.7978 178.175 48.2446 178.169 48.7045C178.151 49.6363 178.066 50.5655 177.913 51.4848C177.773 52.3564 177.499 53.2013 177.103 53.9898C176.707 54.7584 176.193 55.4599 175.579 56.0683C174.966 56.689 174.258 57.2069 173.48 57.6021C172.692 58.0011 171.849 58.2791 170.978 58.4268C170.051 58.5782 169.114 58.66 168.174 58.6714C167.735 58.6816 167.275 58.6875 166.828 58.6875L165.202 58.6905L12.6672 58.6875Z" fill="black"/>
<path d="M37.1533 30.4506C37.1695 29.1986 37.502 27.971 38.1201 26.8821C38.7381 25.7932 39.6215 24.8783 40.6882 24.2225C40.0106 23.2548 39.1166 22.4583 38.0774 21.8965C37.0382 21.3347 35.8822 21.0229 34.7014 20.986C32.1826 20.7216 29.7407 22.4932 28.4571 22.4932C27.1487 22.4932 25.1724 21.0122 23.0443 21.056C21.6678 21.1005 20.3263 21.5008 19.1505 22.2179C17.9747 22.9349 17.0047 23.9444 16.335 25.1478C13.434 30.1704 15.5978 37.552 18.3768 41.6119C19.7671 43.6 21.392 45.8206 23.5182 45.7419C25.5988 45.6556 26.3759 44.4152 28.8873 44.4152C31.3754 44.4152 32.1045 45.7419 34.2738 45.6918C36.5064 45.6556 37.913 43.695 39.2546 41.6881C40.2535 40.2716 41.0222 38.706 41.5322 37.0493C40.2351 36.5007 39.1283 35.5825 38.3496 34.409C37.5709 33.2356 37.1549 31.8589 37.1533 30.4506Z" fill="white"/>
<path d="M33.0559 18.3168C34.2732 16.8555 34.8729 14.9773 34.7277 13.0809C32.868 13.2762 31.1501 14.1651 29.9163 15.5703C29.3131 16.2568 28.8511 17.0555 28.5568 17.9206C28.2624 18.7858 28.1414 19.7005 28.2008 20.6124C29.131 20.622 30.0512 20.4204 30.8922 20.0227C31.7332 19.6251 32.473 19.0418 33.0559 18.3168Z" fill="white"/>
<path d="M63.4535 40.7095H56.3534L54.6483 45.7442H51.641L58.3661 27.1172H61.4906L68.2156 45.7442H65.157L63.4535 40.7095ZM57.0887 38.3862H62.7167L59.9423 30.2153H59.8646L57.0887 38.3862Z" fill="white"/>
<path d="M82.7396 38.9542C82.7396 43.1745 80.4808 45.8859 77.0721 45.8859C76.2086 45.931 75.3499 45.7321 74.5942 45.3119C73.8385 44.8917 73.2164 44.2672 72.7992 43.5099H72.7347V50.2364H69.9471V32.1632H72.6454V34.422H72.6966C73.1331 33.6683 73.7657 33.047 74.5271 32.6243C75.2885 32.2015 76.1504 31.993 77.0208 32.0211C80.4676 32.0211 82.7396 34.7457 82.7396 38.9542ZM79.8744 38.9542C79.8744 36.2047 78.4534 34.3971 76.2855 34.3971C74.1556 34.3971 72.723 36.2428 72.723 38.9542C72.723 41.6906 74.1556 43.5231 76.2855 43.5231C78.4535 43.5231 79.8744 41.7287 79.8744 38.9542Z" fill="white"/>
<path d="M97.6869 38.9542C97.6869 43.1745 95.4281 45.8859 92.0194 45.8859C91.1559 45.931 90.2971 45.7321 89.5415 45.3119C88.7858 44.8917 88.1637 44.2672 87.7464 43.5099H87.6819V50.2364H84.8943V32.1632H87.5926V34.422H87.6438C88.0803 33.6683 88.7129 33.047 89.4743 32.6243C90.2358 32.2015 91.0976 31.9931 91.9681 32.0211C95.4149 32.0211 97.6869 34.7457 97.6869 38.9542ZM94.8216 38.9542C94.8216 36.2047 93.4007 34.3971 91.2327 34.3971C89.1029 34.3971 87.6702 36.2428 87.6702 38.9542C87.6702 41.6906 89.1029 43.5231 91.2327 43.5231C93.4007 43.5231 94.8216 41.7287 94.8216 38.9542H94.8216Z" fill="white"/>
<path d="M107.566 40.5542C107.772 42.4014 109.567 43.6142 112.019 43.6142C114.369 43.6142 116.059 42.4014 116.059 40.7358C116.059 39.29 115.039 38.4243 112.625 37.831L110.211 37.2495C106.791 36.4233 105.203 34.8237 105.203 32.228C105.203 29.0141 108.004 26.8066 111.981 26.8066C115.917 26.8066 118.615 29.0141 118.706 32.228H115.892C115.723 30.3691 114.187 29.247 111.941 29.247C109.696 29.247 108.159 30.3823 108.159 32.0347C108.159 33.3515 109.14 34.1264 111.541 34.7197L113.594 35.2236C117.415 36.1274 119.003 37.6626 119.003 40.3871C119.003 43.872 116.227 46.0546 111.812 46.0546C107.681 46.0546 104.892 43.9233 104.712 40.5541L107.566 40.5542Z" fill="white"/>
<path d="M125.019 28.9509V32.1647H127.602V34.3723H125.019V41.8591C125.019 43.0222 125.536 43.5642 126.672 43.5642C126.978 43.5588 127.284 43.5373 127.589 43.4997V45.694C127.078 45.7894 126.56 45.8326 126.04 45.8229C123.291 45.8229 122.219 44.7902 122.219 42.1564V34.3723H120.244V32.1647H122.219V28.9509H125.019Z" fill="white"/>
<path d="M129.098 38.9557C129.098 34.6828 131.614 31.9977 135.538 31.9977C139.476 31.9977 141.981 34.6827 141.981 38.9557C141.981 43.2404 139.489 45.9138 135.538 45.9138C131.589 45.9138 129.098 43.2404 129.098 38.9557ZM139.141 38.9557C139.141 36.0246 137.797 34.2946 135.538 34.2946C133.28 34.2946 131.938 36.0378 131.938 38.9557C131.938 41.8986 133.28 43.6154 135.538 43.6154C137.797 43.6154 139.14 41.8986 139.14 38.9557H139.141Z" fill="white"/>
<path d="M144.279 32.1631H146.938V34.4746H147.002C147.182 33.7527 147.605 33.1147 148.2 32.6679C148.795 32.221 149.525 31.9926 150.269 32.021C150.59 32.0199 150.911 32.0548 151.224 32.125V34.7324C150.818 34.6085 150.395 34.5516 149.972 34.564C149.567 34.5476 149.163 34.619 148.788 34.7733C148.413 34.9276 148.076 35.1612 147.8 35.4581C147.524 35.7549 147.316 36.1079 147.189 36.4929C147.063 36.8779 147.021 37.2858 147.067 37.6885V45.7437H144.279L144.279 32.1631Z" fill="white"/>
<path d="M164.076 41.7565C163.701 44.2219 161.301 45.9138 158.229 45.9138C154.278 45.9138 151.826 43.2668 151.826 39.0202C151.826 34.7604 154.291 31.9977 158.112 31.9977C161.869 31.9977 164.232 34.5788 164.232 38.6965V39.6516H154.64V39.82C154.596 40.3198 154.658 40.8233 154.824 41.2971C154.989 41.7708 155.253 42.204 155.599 42.5678C155.944 42.9316 156.363 43.2178 156.828 43.4072C157.292 43.5967 157.792 43.6851 158.293 43.6667C158.952 43.7284 159.613 43.5758 160.178 43.2317C160.743 42.8875 161.182 42.3701 161.43 41.7565L164.076 41.7565ZM154.653 37.7033H161.443C161.468 37.2539 161.4 36.8042 161.243 36.3824C161.086 35.9606 160.843 35.5758 160.53 35.2521C160.217 34.9285 159.841 34.673 159.425 34.5016C159.009 34.3303 158.562 34.2469 158.112 34.2565C157.658 34.2538 157.208 34.341 156.788 34.5132C156.368 34.6853 155.986 34.9389 155.664 35.2593C155.343 35.5798 155.088 35.9607 154.914 36.3802C154.741 36.7997 154.652 37.2494 154.653 37.7033V37.7033Z" fill="white"/>
<path d="M56.7393 13.0969C57.3237 13.055 57.9102 13.1433 58.4563 13.3554C59.0025 13.5676 59.4948 13.8983 59.8977 14.3238C60.3005 14.7492 60.604 15.2587 60.7861 15.8156C60.9682 16.3726 61.0244 16.9629 60.9507 17.5442C60.9507 20.4036 59.4053 22.0472 56.7393 22.0472H53.5064V13.0969H56.7393ZM54.8965 20.7814H56.584C57.0016 20.8064 57.4196 20.7379 57.8074 20.581C58.1952 20.4241 58.5431 20.1827 58.8259 19.8743C59.1086 19.566 59.319 19.1985 59.4418 18.7985C59.5646 18.3986 59.5967 17.9763 59.5357 17.5624C59.5922 17.1502 59.5569 16.7305 59.4323 16.3335C59.3076 15.9365 59.0966 15.572 58.8145 15.2661C58.5324 14.9603 58.1862 14.7205 57.8006 14.5642C57.4149 14.4078 56.9995 14.3387 56.584 14.3618H54.8965V20.7814Z" fill="white"/>
<path d="M62.5211 18.6682C62.4786 18.2243 62.5294 17.7765 62.6701 17.3534C62.8109 16.9303 63.0385 16.5413 63.3384 16.2113C63.6384 15.8813 64.0039 15.6177 64.4117 15.4372C64.8195 15.2568 65.2605 15.1636 65.7064 15.1636C66.1523 15.1636 66.5933 15.2568 67.001 15.4372C67.4088 15.6177 67.7744 15.8813 68.0743 16.2113C68.3742 16.5413 68.6018 16.9303 68.7426 17.3534C68.8834 17.7765 68.9341 18.2243 68.8917 18.6682C68.9349 19.1125 68.8848 19.561 68.7444 19.9848C68.604 20.4086 68.3765 20.7983 68.0765 21.1289C67.7765 21.4596 67.4107 21.7238 67.0025 21.9046C66.5943 22.0854 66.1528 22.1788 65.7064 22.1788C65.2599 22.1788 64.8184 22.0854 64.4103 21.9046C64.0021 21.7238 63.6362 21.4596 63.3362 21.1289C63.0362 20.7983 62.8087 20.4086 62.6684 19.9848C62.528 19.561 62.4778 19.1125 62.5211 18.6682ZM67.5206 18.6682C67.5206 17.2041 66.8628 16.3479 65.7086 16.3479C64.5499 16.3479 63.8981 17.2041 63.8981 18.6682C63.8981 20.1441 64.5499 20.9937 65.7086 20.9937C66.8629 20.9936 67.5206 20.1382 67.5206 18.6682H67.5206Z" fill="white"/>
<path d="M77.3599 22.0472H75.9771L74.5811 17.0726H74.4757L73.0855 22.0472H71.7159L69.8541 15.2928H71.2061L72.4161 20.4468H72.5157L73.9044 15.2928H75.1832L76.5718 20.4468H76.6773L77.8814 15.2928H79.2144L77.3599 22.0472Z" fill="white"/>
<path d="M80.7803 15.2923H82.0635V16.3653H82.1631C82.3321 15.9799 82.6171 15.6568 82.9784 15.4411C83.3397 15.2254 83.7593 15.1278 84.1788 15.1619C84.5074 15.1372 84.8374 15.1867 85.1443 15.3069C85.4512 15.427 85.7271 15.6147 85.9517 15.8559C86.1762 16.0972 86.3435 16.3859 86.4413 16.7006C86.5392 17.0154 86.5649 17.3481 86.5166 17.6741V22.0466H85.1836V18.0088C85.1836 16.9234 84.712 16.3836 83.7261 16.3836C83.503 16.3732 83.2802 16.4112 83.0732 16.4949C82.8661 16.5787 82.6795 16.7062 82.5264 16.8688C82.3732 17.0313 82.2569 17.2251 82.1857 17.4368C82.1144 17.6485 82.0897 17.8731 82.1133 18.0952V22.0467H80.7803L80.7803 15.2923Z" fill="white"/>
<path d="M88.6407 12.6561H89.9737V22.0472H88.6407V12.6561Z" fill="white"/>
<path d="M91.8267 18.666C91.7843 18.2221 91.8351 17.7742 91.9759 17.3511C92.1167 16.9279 92.3443 16.5389 92.6443 16.2089C92.9442 15.879 93.3098 15.6153 93.7176 15.4349C94.1254 15.2545 94.5664 15.1613 95.0124 15.1613C95.4583 15.1613 95.8993 15.2545 96.3071 15.4349C96.7149 15.6153 97.0805 15.879 97.3804 16.2089C97.6804 16.5389 97.908 16.9279 98.0488 17.3511C98.1896 17.7742 98.2404 18.2221 98.198 18.666C98.2412 19.1103 98.191 19.5588 98.0506 19.9826C97.9101 20.4064 97.6826 20.7961 97.3826 21.1267C97.0826 21.4573 96.7167 21.7215 96.3085 21.9023C95.9003 22.0831 95.4588 22.1765 95.0124 22.1765C94.5659 22.1765 94.1244 22.0831 93.7162 21.9023C93.308 21.7215 92.9421 21.4573 92.6421 21.1267C92.3421 20.7961 92.1146 20.4064 91.9741 19.9826C91.8337 19.5588 91.7835 19.1103 91.8267 18.666ZM96.8262 18.666C96.8262 17.2019 96.1685 16.3457 95.0142 16.3457C93.8555 16.3457 93.2037 17.2019 93.2037 18.666C93.2037 20.1418 93.8555 20.9914 95.0142 20.9914C96.1685 20.9914 96.8262 20.1359 96.8262 18.666H96.8262Z" fill="white"/>
<path d="M99.6014 20.1382C99.6014 18.9224 100.507 18.2215 102.114 18.1219L103.943 18.0164V17.4334C103.943 16.72 103.471 16.3172 102.56 16.3172C101.816 16.3172 101.301 16.5904 101.153 17.0679H99.8621C99.9984 15.9078 101.09 15.1636 102.622 15.1636C104.315 15.1636 105.27 16.0066 105.27 17.4334V22.0484H103.987V21.0992H103.882C103.668 21.4397 103.367 21.7172 103.011 21.9035C102.654 22.0899 102.255 22.1782 101.853 22.1597C101.569 22.1892 101.283 22.1589 101.012 22.0709C100.74 21.9828 100.491 21.8389 100.279 21.6485C100.066 21.458 99.8966 21.2252 99.78 20.9651C99.6633 20.705 99.6025 20.4233 99.6014 20.1382ZM103.943 19.5611V18.9964L102.294 19.1018C101.364 19.1641 100.942 19.4805 100.942 20.076C100.942 20.6839 101.469 21.0376 102.194 21.0376C102.407 21.0591 102.621 21.0377 102.825 20.9745C103.029 20.9114 103.219 20.8079 103.382 20.6701C103.545 20.5324 103.679 20.3632 103.775 20.1726C103.872 19.9821 103.929 19.7741 103.943 19.5611Z" fill="white"/>
<path d="M107.022 18.6671C107.022 16.5328 108.119 15.1808 109.826 15.1808C110.248 15.1613 110.667 15.2624 111.034 15.4723C111.401 15.6821 111.7 15.992 111.897 16.3658H111.997V12.6561H113.33V22.0472H112.053V20.9801H111.947C111.735 21.3513 111.425 21.6574 111.051 21.8651C110.677 22.0728 110.253 22.1743 109.826 22.1585C108.108 22.1586 107.022 20.8065 107.022 18.6671ZM108.399 18.6671C108.399 20.0997 109.075 20.9618 110.204 20.9618C111.327 20.9618 112.022 20.0873 112.022 18.673C112.022 17.2653 111.32 16.3783 110.204 16.3783C109.082 16.3783 108.399 17.2462 108.399 18.6671H108.399Z" fill="white"/>
<path d="M118.845 18.6682C118.803 18.2243 118.853 17.7765 118.994 17.3534C119.135 16.9303 119.363 16.5413 119.662 16.2113C119.962 15.8813 120.328 15.6177 120.736 15.4372C121.143 15.2568 121.584 15.1636 122.03 15.1636C122.476 15.1636 122.917 15.2568 123.325 15.4372C123.733 15.6177 124.098 15.8813 124.398 16.2113C124.698 16.5413 124.926 16.9303 125.067 17.3534C125.207 17.7765 125.258 18.2243 125.216 18.6682C125.259 19.1125 125.209 19.561 125.068 19.9848C124.928 20.4086 124.7 20.7983 124.4 21.1289C124.1 21.4596 123.735 21.7238 123.326 21.9046C122.918 22.0854 122.477 22.1788 122.03 22.1788C121.584 22.1788 121.142 22.0854 120.734 21.9046C120.326 21.7238 119.96 21.4596 119.66 21.1289C119.36 20.7983 119.133 20.4086 118.992 19.9848C118.852 19.561 118.802 19.1125 118.845 18.6682ZM123.845 18.6682C123.845 17.2041 123.187 16.3479 122.033 16.3479C120.874 16.3479 120.222 17.2041 120.222 18.6682C120.222 20.1441 120.874 20.9937 122.033 20.9937C123.187 20.9936 123.845 20.1382 123.845 18.6682Z" fill="white"/>
<path d="M127.004 15.2923H128.287V16.3653H128.387C128.556 15.9799 128.841 15.6568 129.202 15.4411C129.564 15.2254 129.983 15.1278 130.403 15.1619C130.731 15.1372 131.061 15.1867 131.368 15.3069C131.675 15.427 131.951 15.6147 132.176 15.8559C132.4 16.0972 132.567 16.3859 132.665 16.7006C132.763 17.0154 132.789 17.3481 132.741 17.6741V22.0466H131.408V18.0088C131.408 16.9234 130.936 16.3836 129.95 16.3836C129.727 16.3732 129.504 16.4112 129.297 16.4949C129.09 16.5787 128.903 16.7062 128.75 16.8688C128.597 17.0313 128.481 17.2251 128.41 17.4368C128.338 17.6485 128.314 17.8731 128.337 18.0952V22.0467H127.004V15.2923Z" fill="white"/>
<path d="M140.273 13.6112V15.3236H141.736V16.4464H140.273V19.9195C140.273 20.627 140.564 20.9369 141.228 20.9369C141.398 20.9363 141.567 20.926 141.736 20.9061V22.0164C141.497 22.0593 141.254 22.082 141.011 22.0846C139.529 22.0846 138.938 21.5631 138.938 20.2608V16.4463H137.866V15.3235H138.938V13.6112H140.273Z" fill="white"/>
<path d="M143.557 12.6561H144.878V16.3783H144.984C145.161 15.9893 145.454 15.6644 145.822 15.4479C146.191 15.2314 146.617 15.1337 147.043 15.1683C147.37 15.1505 147.697 15.2051 148 15.3282C148.304 15.4512 148.576 15.6397 148.799 15.8802C149.021 16.1208 149.187 16.4073 149.286 16.7195C149.384 17.0317 149.413 17.3619 149.369 17.6864V22.0472H148.035V18.0152C148.035 16.9364 147.533 16.39 146.591 16.39C146.362 16.3712 146.131 16.4027 145.915 16.4823C145.7 16.5618 145.504 16.6876 145.342 16.8507C145.18 17.0138 145.056 17.2103 144.978 17.4265C144.9 17.6427 144.87 17.8734 144.89 18.1024V22.0472H143.557L143.557 12.6561Z" fill="white"/>
<path d="M157.142 20.2224C156.961 20.8397 156.568 21.3737 156.033 21.7309C155.498 22.0881 154.855 22.2459 154.215 22.1765C153.77 22.1882 153.328 22.103 152.919 21.9267C152.51 21.7504 152.145 21.4873 151.848 21.1556C151.551 20.8239 151.33 20.4315 151.2 20.0058C151.07 19.5801 151.034 19.1311 151.095 18.6902C151.036 18.2478 151.072 17.798 151.202 17.3709C151.332 16.9439 151.552 16.5498 151.847 16.2152C152.142 15.8806 152.506 15.6133 152.914 15.4315C153.321 15.2497 153.763 15.1576 154.209 15.1614C156.089 15.1614 157.222 16.4454 157.222 18.5664V19.0315H152.453V19.1062C152.432 19.3541 152.463 19.6036 152.544 19.8387C152.626 20.0738 152.755 20.2894 152.924 20.4716C153.094 20.6537 153.299 20.7985 153.528 20.8966C153.756 20.9947 154.003 21.044 154.252 21.0412C154.571 21.0795 154.894 21.0221 155.18 20.8763C155.466 20.7304 155.702 20.5028 155.859 20.2224L157.142 20.2224ZM152.453 18.0456H155.865C155.881 17.819 155.851 17.5913 155.774 17.3772C155.698 17.1631 155.577 16.9674 155.421 16.8026C155.264 16.6378 155.075 16.5076 154.865 16.4203C154.655 16.3331 154.429 16.2907 154.202 16.2959C153.971 16.293 153.743 16.3363 153.529 16.4232C153.315 16.5101 153.121 16.6389 152.958 16.802C152.795 16.965 152.667 17.1591 152.58 17.3727C152.493 17.5863 152.45 17.8151 152.453 18.0456H152.453Z" fill="white"/>
</g>
<defs>
<clipPath id="clip0_2_14687">
<rect width="179.496" height="60" fill="white"/>
</clipPath>
</defs>
</svg>
