<svg width="1440" height="590" viewBox="0 0 1440 590" fill="none" xmlns="http://www.w3.org/2000/svg">
<g clip-path="url(#clip0_1136_1168)">
<rect width="1440" height="590" fill="#2E3192"/>
<g style="mix-blend-mode:multiply">
<path d="M600.354 356.4H556.195V588.003H600.354V356.4Z" fill="#E2E8F0"/>
<path d="M571.639 363.925H563.049V372.771H571.639V363.925Z" fill="#F1F5F9"/>
<path d="M582.618 363.925H574.028V372.771H582.618V363.925Z" fill="#F1F5F9"/>
<path d="M571.639 378.946H563.049V387.792H571.639V378.946Z" fill="#F1F5F9"/>
<path d="M582.618 378.946H574.028V387.792H582.618V378.946Z" fill="#F1F5F9"/>
<path d="M571.639 393.953H563.049V402.799H571.639V393.953Z" fill="#F1F5F9"/>
<path d="M582.618 393.953H574.028V402.799H582.618V393.953Z" fill="#F1F5F9"/>
<path d="M571.639 408.974H563.049V417.82H571.639V408.974Z" fill="#F1F5F9"/>
<path d="M582.618 408.974H574.028V417.82H582.618V408.974Z" fill="#F1F5F9"/>
<path d="M571.639 423.981H563.049V432.827H571.639V423.981Z" fill="#F1F5F9"/>
<path d="M582.618 423.981H574.028V432.827H582.618V423.981Z" fill="#F1F5F9"/>
<path d="M571.64 439.002H563.049V447.848H571.64V439.002Z" fill="#F1F5F9"/>
<path d="M582.618 439.002H574.028V447.848H582.618V439.002Z" fill="#F1F5F9"/>
<path d="M571.639 454.009H563.049V462.855H571.639V454.009Z" fill="#F1F5F9"/>
<path d="M582.618 454.009H574.028V462.855H582.618V454.009Z" fill="#F1F5F9"/>
<path d="M571.639 469.03H563.049V477.876H571.639V469.03Z" fill="#F1F5F9"/>
<path d="M582.618 469.03H574.028V477.876H582.618V469.03Z" fill="#F1F5F9"/>
<path d="M571.64 484.038H563.049V492.883H571.64V484.038Z" fill="#F1F5F9"/>
<path d="M582.618 484.038H574.028V492.883H582.618V484.038Z" fill="#F1F5F9"/>
<path d="M571.639 499.059H563.049V507.905H571.639V499.059Z" fill="#F1F5F9"/>
<path d="M582.618 499.059H574.028V507.905H582.618V499.059Z" fill="#F1F5F9"/>
<path d="M571.64 514.066H563.049V522.911H571.64V514.066Z" fill="#F1F5F9"/>
<path d="M582.618 514.066H574.028V522.911H582.618V514.066Z" fill="#F1F5F9"/>
<path d="M571.639 529.087H563.049V537.933H571.639V529.087Z" fill="#F1F5F9"/>
<path d="M582.618 529.087H574.028V537.933H582.618V529.087Z" fill="#F1F5F9"/>
<path d="M571.639 544.094H563.049V552.94H571.639V544.094Z" fill="#F1F5F9"/>
<path d="M582.618 544.094H574.028V552.94H582.618V544.094Z" fill="#F1F5F9"/>
<path d="M571.639 559.115H563.049V567.961H571.639V559.115Z" fill="#F1F5F9"/>
<path d="M584.897 567.947H593.488V559.101H584.897V567.947Z" fill="#F1F5F9"/>
<path d="M584.897 552.94H593.488V544.094H584.897V552.94Z" fill="#F1F5F9"/>
<path d="M584.897 537.919H593.488V529.073H584.897V537.919Z" fill="#F1F5F9"/>
<path d="M584.897 522.911H593.487V514.066H584.897V522.911Z" fill="#F1F5F9"/>
<path d="M584.897 507.891H593.488V499.045H584.897V507.891Z" fill="#F1F5F9"/>
<path d="M584.897 492.884H593.488V484.038H584.897V492.884Z" fill="#F1F5F9"/>
<path d="M584.897 477.862H593.488V469.017H584.897V477.862Z" fill="#F1F5F9"/>
<path d="M584.897 462.855H593.488V454.009H584.897V462.855Z" fill="#F1F5F9"/>
<path d="M584.897 447.834H593.488V438.988H584.897V447.834Z" fill="#F1F5F9"/>
<path d="M584.897 432.827H593.488V423.981H584.897V432.827Z" fill="#F1F5F9"/>
<path d="M584.897 417.806H593.488V408.96H584.897V417.806Z" fill="#F1F5F9"/>
<path d="M584.897 402.799H593.488V393.953H584.897V402.799Z" fill="#F1F5F9"/>
<path d="M584.897 387.778H593.488V378.932H584.897V387.778Z" fill="#F1F5F9"/>
<path d="M584.897 372.77H593.488V363.924H584.897V372.77Z" fill="#F1F5F9"/>
<path d="M582.618 559.115H574.028V567.961H582.618V559.115Z" fill="#F1F5F9"/>
<path d="M635.175 356.4H600.356V588.003H635.175V356.4Z" fill="#94A3B8"/>
<path d="M624.485 567.947H631.574V559.101H624.485V567.947Z" fill="#CBD5E1"/>
<path d="M615.41 567.947H622.499V559.101H615.41V567.947Z" fill="#CBD5E1"/>
<path d="M624.485 552.94H631.574V544.094H624.485V552.94Z" fill="#CBD5E1"/>
<path d="M615.41 552.94H622.499V544.094H615.41V552.94Z" fill="#CBD5E1"/>
<path d="M624.485 537.919H631.574V529.073H624.485V537.919Z" fill="#CBD5E1"/>
<path d="M615.41 537.919H622.499V529.074H615.41V537.919Z" fill="#CBD5E1"/>
<path d="M624.485 522.911H631.574V514.066H624.485V522.911Z" fill="#CBD5E1"/>
<path d="M615.41 522.911H622.499V514.066H615.41V522.911Z" fill="#CBD5E1"/>
<path d="M624.485 507.891H631.574V499.045H624.485V507.891Z" fill="#CBD5E1"/>
<path d="M615.41 507.891H622.499V499.045H615.41V507.891Z" fill="#CBD5E1"/>
<path d="M624.485 492.884H631.574V484.038H624.485V492.884Z" fill="#CBD5E1"/>
<path d="M615.41 492.883H622.499V484.038H615.41V492.883Z" fill="#CBD5E1"/>
<path d="M624.485 477.862H631.574V469.017H624.485V477.862Z" fill="#CBD5E1"/>
<path d="M615.41 477.862H622.499V469.017H615.41V477.862Z" fill="#CBD5E1"/>
<path d="M624.485 462.855H631.574V454.009H624.485V462.855Z" fill="#CBD5E1"/>
<path d="M615.41 462.855H622.499V454.009H615.41V462.855Z" fill="#CBD5E1"/>
<path d="M624.485 447.834H631.574V438.988H624.485V447.834Z" fill="#CBD5E1"/>
<path d="M615.41 447.834H622.499V438.988H615.41V447.834Z" fill="#CBD5E1"/>
<path d="M624.485 432.827H631.574V423.981H624.485V432.827Z" fill="#CBD5E1"/>
<path d="M615.41 432.826H622.499V423.981H615.41V432.826Z" fill="#CBD5E1"/>
<path d="M624.485 417.806H631.574V408.96H624.485V417.806Z" fill="#CBD5E1"/>
<path d="M615.41 417.806H622.499V408.96H615.41V417.806Z" fill="#CBD5E1"/>
<path d="M624.485 402.799H631.574V393.953H624.485V402.799Z" fill="#CBD5E1"/>
<path d="M615.41 402.799H622.499V393.953H615.41V402.799Z" fill="#CBD5E1"/>
<path d="M624.485 387.778H631.574V378.932H624.485V387.778Z" fill="#CBD5E1"/>
<path d="M615.41 387.777H622.499V378.932H615.41V387.777Z" fill="#CBD5E1"/>
<path d="M624.485 372.77H631.574V363.924H624.485V372.77Z" fill="#CBD5E1"/>
<path d="M613.518 363.925H606.429V372.771H613.518V363.925Z" fill="#CBD5E1"/>
<path d="M613.518 378.946H606.429V387.792H613.518V378.946Z" fill="#CBD5E1"/>
<path d="M613.518 393.953H606.429V402.799H613.518V393.953Z" fill="#CBD5E1"/>
<path d="M613.518 408.974H606.429V417.82H613.518V408.974Z" fill="#CBD5E1"/>
<path d="M613.518 423.981H606.429V432.826H613.518V423.981Z" fill="#CBD5E1"/>
<path d="M613.518 439.002H606.429V447.848H613.518V439.002Z" fill="#CBD5E1"/>
<path d="M613.518 454.009H606.429V462.855H613.518V454.009Z" fill="#CBD5E1"/>
<path d="M613.518 469.03H606.429V477.876H613.518V469.03Z" fill="#CBD5E1"/>
<path d="M613.518 484.038H606.429V492.883H613.518V484.038Z" fill="#CBD5E1"/>
<path d="M613.518 499.059H606.429V507.905H613.518V499.059Z" fill="#CBD5E1"/>
<path d="M613.518 514.066H606.429V522.911H613.518V514.066Z" fill="#CBD5E1"/>
<path d="M613.518 529.087H606.429V537.933H613.518V529.087Z" fill="#CBD5E1"/>
<path d="M613.518 544.094H606.429V552.94H613.518V544.094Z" fill="#CBD5E1"/>
<path d="M613.518 559.115H606.429V567.961H613.518V559.115Z" fill="#CBD5E1"/>
<path d="M615.41 372.77H622.499V363.924H615.41V372.77Z" fill="#CBD5E1"/>
<path d="M506.672 497.626H466.46V588.003H506.672V497.626Z" fill="#E2E8F0"/>
<path d="M479.886 505.443H472.769V510.978H479.886V505.443Z" fill="#CBD5E1"/>
<path d="M479.886 517.279H472.769V522.815H479.886V517.279Z" fill="#CBD5E1"/>
<path d="M479.886 529.101H472.769V534.637H479.886V529.101Z" fill="#CBD5E1"/>
<path d="M479.886 540.938H472.769V546.473H479.886V540.938Z" fill="#CBD5E1"/>
<path d="M479.886 552.76H472.769V558.295H479.886V552.76Z" fill="#CBD5E1"/>
<path d="M479.886 564.581H472.769V570.117H479.886V564.581Z" fill="#CBD5E1"/>
<path d="M479.886 576.417H472.769V581.953H479.886V576.417Z" fill="#CBD5E1"/>
<path d="M490.131 505.443H483.014V510.978H490.131V505.443Z" fill="#CBD5E1"/>
<path d="M490.131 517.279H483.014V522.815H490.131V517.279Z" fill="#CBD5E1"/>
<path d="M490.131 529.101H483.014V534.637H490.131V529.101Z" fill="#CBD5E1"/>
<path d="M490.131 540.937H483.014V546.473H490.131V540.937Z" fill="#CBD5E1"/>
<path d="M490.131 552.759H483.014V558.295H490.131V552.759Z" fill="#CBD5E1"/>
<path d="M490.131 564.581H483.014V570.117H490.131V564.581Z" fill="#CBD5E1"/>
<path d="M490.131 576.417H483.014V581.953H490.131V576.417Z" fill="#CBD5E1"/>
<path d="M500.333 505.443H493.217V510.978H500.333V505.443Z" fill="#CBD5E1"/>
<path d="M500.333 517.279H493.217V522.815H500.333V517.279Z" fill="#CBD5E1"/>
<path d="M500.333 529.101H493.217V534.637H500.333V529.101Z" fill="#CBD5E1"/>
<path d="M500.333 540.937H493.217V546.473H500.333V540.937Z" fill="#CBD5E1"/>
<path d="M500.333 552.759H493.217V558.295H500.333V552.759Z" fill="#CBD5E1"/>
<path d="M500.333 564.581H493.217V570.117H500.333V564.581Z" fill="#CBD5E1"/>
<path d="M500.333 576.417H493.217V581.953H500.333V576.417Z" fill="#CBD5E1"/>
<path d="M534.874 497.626H506.658V588.003H534.874V497.626Z" fill="#94A3B8"/>
<path d="M526.199 581.077H531.995V575.541H526.199V581.077Z" fill="#CBD5E1"/>
<path d="M526.199 569.241H531.995V563.705H526.199V569.241Z" fill="#CBD5E1"/>
<path d="M526.199 557.405H531.995V551.869H526.199V557.405Z" fill="#CBD5E1"/>
<path d="M526.199 545.583H531.995V540.047H526.199V545.583Z" fill="#CBD5E1"/>
<path d="M526.199 533.76H531.995V528.225H526.199V533.76Z" fill="#CBD5E1"/>
<path d="M526.199 521.938H531.995V516.403H526.199V521.938Z" fill="#CBD5E1"/>
<path d="M526.199 510.102H531.995V504.567H526.199V510.102Z" fill="#CBD5E1"/>
<path d="M517.859 581.077H523.655V575.541H517.859V581.077Z" fill="#CBD5E1"/>
<path d="M517.859 569.241H523.655V563.705H517.859V569.241Z" fill="#CBD5E1"/>
<path d="M517.859 557.405H523.655V551.869H517.859V557.405Z" fill="#CBD5E1"/>
<path d="M517.859 545.583H523.655V540.047H517.859V545.583Z" fill="#CBD5E1"/>
<path d="M517.859 533.76H523.655V528.225H517.859V533.76Z" fill="#CBD5E1"/>
<path d="M517.859 521.938H523.655V516.403H517.859V521.938Z" fill="#CBD5E1"/>
<path d="M517.859 510.102H523.655V504.567H517.859V510.102Z" fill="#CBD5E1"/>
<path d="M509.549 581.077H515.345V575.541H509.549V581.077Z" fill="#CBD5E1"/>
<path d="M509.549 569.241H515.345V563.705H509.549V569.241Z" fill="#CBD5E1"/>
<path d="M509.549 557.405H515.345V551.869H509.549V557.405Z" fill="#CBD5E1"/>
<path d="M509.549 545.583H515.345V540.047H509.549V545.583Z" fill="#CBD5E1"/>
<path d="M509.549 533.76H515.345V528.225H509.549V533.76Z" fill="#CBD5E1"/>
<path d="M509.549 521.938H515.345V516.403H509.549V521.938Z" fill="#CBD5E1"/>
<path d="M509.549 510.102H515.345V504.567H509.549V510.102Z" fill="#CBD5E1"/>
<path d="M665.976 393.953H638.19V426.791H665.976V393.953Z" fill="#E2E8F0"/>
<path d="M683.587 393.953H665.976V427.987H683.587V393.953Z" fill="#CBD5E1"/>
<path d="M684.767 408.459H667.282V428.001H684.767V408.459Z" fill="#E2E8F0"/>
<path d="M695.651 408.459H684.753V428.001H695.651V408.459Z" fill="#CBD5E1"/>
<path d="M672.453 424.649H627.529V588.004H672.453V424.649Z" fill="#F1F5F9"/>
<path d="M646.796 431.672H632.673V437.444H646.796V431.672Z" fill="white"/>
<path d="M664.865 431.672H650.743V437.444H664.865V431.672Z" fill="white"/>
<path d="M646.796 441.478H632.673V447.25H646.796V441.478Z" fill="white"/>
<path d="M664.865 441.478H650.743V447.25H664.865V441.478Z" fill="white"/>
<path d="M646.796 451.283H632.673V457.055H646.796V451.283Z" fill="white"/>
<path d="M664.865 451.283H650.743V457.055H664.865V451.283Z" fill="white"/>
<path d="M646.796 461.089H632.673V466.861H646.796V461.089Z" fill="white"/>
<path d="M664.865 461.089H650.743V466.861H664.865V461.089Z" fill="white"/>
<path d="M646.796 470.894H632.673V476.666H646.796V470.894Z" fill="white"/>
<path d="M664.865 470.894H650.743V476.666H664.865V470.894Z" fill="white"/>
<path d="M646.796 480.699H632.674V486.471H646.796V480.699Z" fill="white"/>
<path d="M664.865 480.699H650.743V486.471H664.865V480.699Z" fill="white"/>
<path d="M646.796 490.505H632.673V496.277H646.796V490.505Z" fill="white"/>
<path d="M664.865 490.505H650.743V496.277H664.865V490.505Z" fill="white"/>
<path d="M646.796 500.31H632.674V506.082H646.796V500.31Z" fill="white"/>
<path d="M664.865 500.31H650.743V506.082H664.865V500.31Z" fill="white"/>
<path d="M646.796 510.116H632.673V515.888H646.796V510.116Z" fill="white"/>
<path d="M664.865 510.116H650.743V515.888H664.865V510.116Z" fill="white"/>
<path d="M646.796 519.921H632.674V525.693H646.796V519.921Z" fill="white"/>
<path d="M664.865 519.921H650.743V525.693H664.865V519.921Z" fill="white"/>
<path d="M646.796 529.727H632.674V535.499H646.796V529.727Z" fill="white"/>
<path d="M664.865 529.727H650.743V535.499H664.865V529.727Z" fill="white"/>
<path d="M646.796 539.532H632.673V545.304H646.796V539.532Z" fill="white"/>
<path d="M664.865 539.532H650.743V545.304H664.865V539.532Z" fill="white"/>
<path d="M646.796 549.338H632.674V555.11H646.796V549.338Z" fill="white"/>
<path d="M664.865 549.338H650.743V555.11H664.865V549.338Z" fill="white"/>
<path d="M646.796 559.143H632.673V564.915H646.796V559.143Z" fill="white"/>
<path d="M664.865 559.143H650.743V564.915H664.865V559.143Z" fill="white"/>
<path d="M708.856 424.649H672.453V588.004H708.856V424.649Z" fill="#CBD5E1"/>
<path d="M693.609 564.915H705.202V559.143H693.609V564.915Z" fill="#F1F5F9"/>
<path d="M678.765 564.915H690.357V559.143H678.765V564.915Z" fill="#F1F5F9"/>
<path d="M693.609 555.11H705.202V549.338H693.609V555.11Z" fill="#F1F5F9"/>
<path d="M678.765 555.11H690.357V549.338H678.765V555.11Z" fill="#F1F5F9"/>
<path d="M693.609 545.304H705.202V539.532H693.609V545.304Z" fill="#F1F5F9"/>
<path d="M678.765 545.304H690.357V539.532H678.765V545.304Z" fill="#F1F5F9"/>
<path d="M693.609 535.499H705.202V529.727H693.609V535.499Z" fill="#F1F5F9"/>
<path d="M678.765 535.499H690.357V529.727H678.765V535.499Z" fill="#F1F5F9"/>
<path d="M693.609 525.693H705.202V519.921H693.609V525.693Z" fill="#F1F5F9"/>
<path d="M678.765 525.693H690.357V519.921H678.765V525.693Z" fill="#F1F5F9"/>
<path d="M693.609 515.888H705.202V510.116H693.609V515.888Z" fill="#F1F5F9"/>
<path d="M678.765 515.888H690.357V510.116H678.765V515.888Z" fill="#F1F5F9"/>
<path d="M693.609 506.083H705.202V500.311H693.609V506.083Z" fill="#F1F5F9"/>
<path d="M678.765 506.083H690.357V500.311H678.765V506.083Z" fill="#F1F5F9"/>
<path d="M693.609 496.291H705.202V490.519H693.609V496.291Z" fill="#F1F5F9"/>
<path d="M678.765 496.291H690.357V490.519H678.765V496.291Z" fill="#F1F5F9"/>
<path d="M693.609 486.486H705.202V480.714H693.609V486.486Z" fill="#F1F5F9"/>
<path d="M678.765 486.486H690.357V480.714H678.765V486.486Z" fill="#F1F5F9"/>
<path d="M693.609 476.68H705.202V470.908H693.609V476.68Z" fill="#F1F5F9"/>
<path d="M678.765 476.68H690.357V470.908H678.765V476.68Z" fill="#F1F5F9"/>
<path d="M693.61 466.875H705.202V461.103H693.61V466.875Z" fill="#F1F5F9"/>
<path d="M678.765 466.875H690.358V461.103H678.765V466.875Z" fill="#F1F5F9"/>
<path d="M693.609 457.069H705.202V451.297H693.609V457.069Z" fill="#F1F5F9"/>
<path d="M678.765 457.069H690.357V451.297H678.765V457.069Z" fill="#F1F5F9"/>
<path d="M693.609 447.264H705.202V441.492H693.609V447.264Z" fill="#F1F5F9"/>
<path d="M678.765 447.264H690.357V441.492H678.765V447.264Z" fill="#F1F5F9"/>
<path d="M693.61 437.459H705.202V431.687H693.61V437.459Z" fill="#F1F5F9"/>
<path d="M678.765 437.459H690.358V431.687H678.765V437.459Z" fill="#F1F5F9"/>
</g>
<g style="mix-blend-mode:multiply">
<path d="M1131.32 356.4H1087.16V588.003H1131.32V356.4Z" fill="#E2E8F0"/>
<path d="M1102.61 363.925H1094.02V372.771H1102.61V363.925Z" fill="#F1F5F9"/>
<path d="M1113.59 363.925H1105V372.771H1113.59V363.925Z" fill="#F1F5F9"/>
<path d="M1102.61 378.946H1094.02V387.792H1102.61V378.946Z" fill="#F1F5F9"/>
<path d="M1113.59 378.946H1105V387.792H1113.59V378.946Z" fill="#F1F5F9"/>
<path d="M1102.61 393.953H1094.02V402.799H1102.61V393.953Z" fill="#F1F5F9"/>
<path d="M1113.59 393.953H1105V402.799H1113.59V393.953Z" fill="#F1F5F9"/>
<path d="M1102.61 408.974H1094.02V417.82H1102.61V408.974Z" fill="#F1F5F9"/>
<path d="M1113.59 408.974H1105V417.82H1113.59V408.974Z" fill="#F1F5F9"/>
<path d="M1102.61 423.981H1094.02V432.827H1102.61V423.981Z" fill="#F1F5F9"/>
<path d="M1113.59 423.981H1105V432.827H1113.59V423.981Z" fill="#F1F5F9"/>
<path d="M1102.61 439.002H1094.02V447.848H1102.61V439.002Z" fill="#F1F5F9"/>
<path d="M1113.59 439.002H1105V447.848H1113.59V439.002Z" fill="#F1F5F9"/>
<path d="M1102.61 454.01H1094.02V462.855H1102.61V454.01Z" fill="#F1F5F9"/>
<path d="M1113.59 454.01H1105V462.855H1113.59V454.01Z" fill="#F1F5F9"/>
<path d="M1102.61 469.031H1094.02V477.877H1102.61V469.031Z" fill="#F1F5F9"/>
<path d="M1113.59 469.031H1105V477.877H1113.59V469.031Z" fill="#F1F5F9"/>
<path d="M1102.61 484.038H1094.02V492.884H1102.61V484.038Z" fill="#F1F5F9"/>
<path d="M1113.59 484.038H1105V492.884H1113.59V484.038Z" fill="#F1F5F9"/>
<path d="M1102.61 499.059H1094.02V507.905H1102.61V499.059Z" fill="#F1F5F9"/>
<path d="M1113.59 499.059H1105V507.905H1113.59V499.059Z" fill="#F1F5F9"/>
<path d="M1102.61 514.066H1094.02V522.912H1102.61V514.066Z" fill="#F1F5F9"/>
<path d="M1113.59 514.066H1105V522.912H1113.59V514.066Z" fill="#F1F5F9"/>
<path d="M1102.61 529.087H1094.02V537.933H1102.61V529.087Z" fill="#F1F5F9"/>
<path d="M1113.59 529.087H1105V537.933H1113.59V529.087Z" fill="#F1F5F9"/>
<path d="M1102.61 544.094H1094.02V552.94H1102.61V544.094Z" fill="#F1F5F9"/>
<path d="M1113.59 544.094H1105V552.94H1113.59V544.094Z" fill="#F1F5F9"/>
<path d="M1102.61 559.115H1094.02V567.961H1102.61V559.115Z" fill="#F1F5F9"/>
<path d="M1115.87 567.947H1124.46V559.101H1115.87V567.947Z" fill="#F1F5F9"/>
<path d="M1115.87 552.94H1124.46V544.094H1115.87V552.94Z" fill="#F1F5F9"/>
<path d="M1115.87 537.919H1124.46V529.073H1115.87V537.919Z" fill="#F1F5F9"/>
<path d="M1115.87 522.912H1124.46V514.066H1115.87V522.912Z" fill="#F1F5F9"/>
<path d="M1115.87 507.891H1124.46V499.045H1115.87V507.891Z" fill="#F1F5F9"/>
<path d="M1115.87 492.884H1124.46V484.038H1115.87V492.884Z" fill="#F1F5F9"/>
<path d="M1115.87 477.862H1124.46V469.016H1115.87V477.862Z" fill="#F1F5F9"/>
<path d="M1115.87 462.855H1124.46V454.009H1115.87V462.855Z" fill="#F1F5F9"/>
<path d="M1115.87 447.834H1124.46V438.988H1115.87V447.834Z" fill="#F1F5F9"/>
<path d="M1115.87 432.827H1124.46V423.981H1115.87V432.827Z" fill="#F1F5F9"/>
<path d="M1115.87 417.806H1124.46V408.96H1115.87V417.806Z" fill="#F1F5F9"/>
<path d="M1115.87 402.799H1124.46V393.953H1115.87V402.799Z" fill="#F1F5F9"/>
<path d="M1115.87 387.778H1124.46V378.932H1115.87V387.778Z" fill="#F1F5F9"/>
<path d="M1115.87 372.77H1124.46V363.924H1115.87V372.77Z" fill="#F1F5F9"/>
<path d="M1113.59 559.115H1105V567.961H1113.59V559.115Z" fill="#F1F5F9"/>
<path d="M1166.15 356.4H1131.33V588.003H1166.15V356.4Z" fill="#94A3B8"/>
<path d="M1155.46 567.947H1162.54V559.101H1155.46V567.947Z" fill="#CBD5E1"/>
<path d="M1146.38 567.947H1153.47V559.101H1146.38V567.947Z" fill="#CBD5E1"/>
<path d="M1155.46 552.94H1162.54V544.094H1155.46V552.94Z" fill="#CBD5E1"/>
<path d="M1146.38 552.94H1153.47V544.094H1146.38V552.94Z" fill="#CBD5E1"/>
<path d="M1155.46 537.919H1162.54V529.074H1155.46V537.919Z" fill="#CBD5E1"/>
<path d="M1146.38 537.919H1153.47V529.073H1146.38V537.919Z" fill="#CBD5E1"/>
<path d="M1155.46 522.912H1162.54V514.066H1155.46V522.912Z" fill="#CBD5E1"/>
<path d="M1146.38 522.912H1153.47V514.066H1146.38V522.912Z" fill="#CBD5E1"/>
<path d="M1155.46 507.891H1162.54V499.045H1155.46V507.891Z" fill="#CBD5E1"/>
<path d="M1146.38 507.891H1153.47V499.045H1146.38V507.891Z" fill="#CBD5E1"/>
<path d="M1155.46 492.884H1162.54V484.038H1155.46V492.884Z" fill="#CBD5E1"/>
<path d="M1146.38 492.884H1153.47V484.038H1146.38V492.884Z" fill="#CBD5E1"/>
<path d="M1155.46 477.862H1162.54V469.016H1155.46V477.862Z" fill="#CBD5E1"/>
<path d="M1146.38 477.862H1153.47V469.016H1146.38V477.862Z" fill="#CBD5E1"/>
<path d="M1155.46 462.855H1162.54V454.009H1155.46V462.855Z" fill="#CBD5E1"/>
<path d="M1146.38 462.855H1153.47V454.009H1146.38V462.855Z" fill="#CBD5E1"/>
<path d="M1155.46 447.834H1162.54V438.988H1155.46V447.834Z" fill="#CBD5E1"/>
<path d="M1146.38 447.834H1153.47V438.988H1146.38V447.834Z" fill="#CBD5E1"/>
<path d="M1155.46 432.827H1162.54V423.981H1155.46V432.827Z" fill="#CBD5E1"/>
<path d="M1146.38 432.827H1153.47V423.981H1146.38V432.827Z" fill="#CBD5E1"/>
<path d="M1155.46 417.806H1162.54V408.96H1155.46V417.806Z" fill="#CBD5E1"/>
<path d="M1146.38 417.806H1153.47V408.96H1146.38V417.806Z" fill="#CBD5E1"/>
<path d="M1155.46 402.799H1162.54V393.953H1155.46V402.799Z" fill="#CBD5E1"/>
<path d="M1146.38 402.799H1153.47V393.953H1146.38V402.799Z" fill="#CBD5E1"/>
<path d="M1155.46 387.777H1162.54V378.932H1155.46V387.777Z" fill="#CBD5E1"/>
<path d="M1146.38 387.778H1153.47V378.932H1146.38V387.778Z" fill="#CBD5E1"/>
<path d="M1155.46 372.77H1162.54V363.924H1155.46V372.77Z" fill="#CBD5E1"/>
<path d="M1144.49 363.925H1137.4V372.771H1144.49V363.925Z" fill="#CBD5E1"/>
<path d="M1144.49 378.946H1137.4V387.792H1144.49V378.946Z" fill="#CBD5E1"/>
<path d="M1144.49 393.953H1137.4V402.799H1144.49V393.953Z" fill="#CBD5E1"/>
<path d="M1144.49 408.974H1137.4V417.82H1144.49V408.974Z" fill="#CBD5E1"/>
<path d="M1144.49 423.981H1137.4V432.827H1144.49V423.981Z" fill="#CBD5E1"/>
<path d="M1144.49 439.002H1137.4V447.848H1144.49V439.002Z" fill="#CBD5E1"/>
<path d="M1144.49 454.009H1137.4V462.855H1144.49V454.009Z" fill="#CBD5E1"/>
<path d="M1144.49 469.03H1137.4V477.876H1144.49V469.03Z" fill="#CBD5E1"/>
<path d="M1144.49 484.038H1137.4V492.884H1144.49V484.038Z" fill="#CBD5E1"/>
<path d="M1144.49 499.059H1137.4V507.905H1144.49V499.059Z" fill="#CBD5E1"/>
<path d="M1144.49 514.066H1137.4V522.912H1144.49V514.066Z" fill="#CBD5E1"/>
<path d="M1144.49 529.087H1137.4V537.933H1144.49V529.087Z" fill="#CBD5E1"/>
<path d="M1144.49 544.094H1137.4V552.94H1144.49V544.094Z" fill="#CBD5E1"/>
<path d="M1144.49 559.115H1137.4V567.961H1144.49V559.115Z" fill="#CBD5E1"/>
<path d="M1146.38 372.77H1153.47V363.924H1146.38V372.77Z" fill="#CBD5E1"/>
<path d="M1037.64 497.627H997.43V588.004H1037.64V497.627Z" fill="#E2E8F0"/>
<path d="M1010.86 505.443H1003.74V510.978H1010.86V505.443Z" fill="#CBD5E1"/>
<path d="M1010.86 517.279H1003.74V522.815H1010.86V517.279Z" fill="#CBD5E1"/>
<path d="M1010.86 529.101H1003.74V534.637H1010.86V529.101Z" fill="#CBD5E1"/>
<path d="M1010.86 540.937H1003.74V546.473H1010.86V540.937Z" fill="#CBD5E1"/>
<path d="M1010.86 552.759H1003.74V558.295H1010.86V552.759Z" fill="#CBD5E1"/>
<path d="M1010.86 564.582H1003.74V570.117H1010.86V564.582Z" fill="#CBD5E1"/>
<path d="M1010.86 576.418H1003.74V581.953H1010.86V576.418Z" fill="#CBD5E1"/>
<path d="M1021.1 505.443H1013.99V510.978H1021.1V505.443Z" fill="#CBD5E1"/>
<path d="M1021.1 517.279H1013.99V522.815H1021.1V517.279Z" fill="#CBD5E1"/>
<path d="M1021.1 529.101H1013.99V534.637H1021.1V529.101Z" fill="#CBD5E1"/>
<path d="M1021.1 540.937H1013.99V546.473H1021.1V540.937Z" fill="#CBD5E1"/>
<path d="M1021.1 552.759H1013.99V558.295H1021.1V552.759Z" fill="#CBD5E1"/>
<path d="M1021.1 564.582H1013.99V570.117H1021.1V564.582Z" fill="#CBD5E1"/>
<path d="M1021.1 576.418H1013.99V581.953H1021.1V576.418Z" fill="#CBD5E1"/>
<path d="M1031.3 505.443H1024.19V510.978H1031.3V505.443Z" fill="#CBD5E1"/>
<path d="M1031.3 517.279H1024.19V522.815H1031.3V517.279Z" fill="#CBD5E1"/>
<path d="M1031.3 529.101H1024.19V534.637H1031.3V529.101Z" fill="#CBD5E1"/>
<path d="M1031.3 540.937H1024.19V546.473H1031.3V540.937Z" fill="#CBD5E1"/>
<path d="M1031.3 552.759H1024.19V558.295H1031.3V552.759Z" fill="#CBD5E1"/>
<path d="M1031.3 564.582H1024.19V570.117H1031.3V564.582Z" fill="#CBD5E1"/>
<path d="M1031.3 576.418H1024.19V581.953H1031.3V576.418Z" fill="#CBD5E1"/>
<path d="M1065.85 497.627H1037.63V588.004H1065.85V497.627Z" fill="#94A3B8"/>
<path d="M1057.17 581.077H1062.97V575.542H1057.17V581.077Z" fill="#CBD5E1"/>
<path d="M1057.17 569.241H1062.97V563.705H1057.17V569.241Z" fill="#CBD5E1"/>
<path d="M1057.17 557.405H1062.97V551.869H1057.17V557.405Z" fill="#CBD5E1"/>
<path d="M1057.17 545.582H1062.97V540.047H1057.17V545.582Z" fill="#CBD5E1"/>
<path d="M1057.17 533.76H1062.97V528.225H1057.17V533.76Z" fill="#CBD5E1"/>
<path d="M1057.17 521.938H1062.97V516.403H1057.17V521.938Z" fill="#CBD5E1"/>
<path d="M1057.17 510.102H1062.97V504.567H1057.17V510.102Z" fill="#CBD5E1"/>
<path d="M1048.83 581.077H1054.63V575.542H1048.83V581.077Z" fill="#CBD5E1"/>
<path d="M1048.83 569.241H1054.63V563.705H1048.83V569.241Z" fill="#CBD5E1"/>
<path d="M1048.83 557.405H1054.63V551.869H1048.83V557.405Z" fill="#CBD5E1"/>
<path d="M1048.83 545.582H1054.63V540.047H1048.83V545.582Z" fill="#CBD5E1"/>
<path d="M1048.83 533.76H1054.63V528.225H1048.83V533.76Z" fill="#CBD5E1"/>
<path d="M1048.83 521.938H1054.63V516.403H1048.83V521.938Z" fill="#CBD5E1"/>
<path d="M1048.83 510.102H1054.63V504.567H1048.83V510.102Z" fill="#CBD5E1"/>
<path d="M1040.52 581.077H1046.32V575.542H1040.52V581.077Z" fill="#CBD5E1"/>
<path d="M1040.52 569.241H1046.32V563.705H1040.52V569.241Z" fill="#CBD5E1"/>
<path d="M1040.52 557.405H1046.32V551.869H1040.52V557.405Z" fill="#CBD5E1"/>
<path d="M1040.52 545.582H1046.32V540.047H1040.52V545.582Z" fill="#CBD5E1"/>
<path d="M1040.52 533.76H1046.32V528.225H1040.52V533.76Z" fill="#CBD5E1"/>
<path d="M1040.52 521.938H1046.32V516.403H1040.52V521.938Z" fill="#CBD5E1"/>
<path d="M1040.52 510.102H1046.32V504.567H1040.52V510.102Z" fill="#CBD5E1"/>
<path d="M1196.95 393.953H1169.16V426.791H1196.95V393.953Z" fill="#E2E8F0"/>
<path d="M1214.56 393.953H1196.95V427.987H1214.56V393.953Z" fill="#CBD5E1"/>
<path d="M1215.74 408.46H1198.25V428.001H1215.74V408.46Z" fill="#E2E8F0"/>
<path d="M1226.62 408.46H1215.72V428.001H1226.62V408.46Z" fill="#CBD5E1"/>
<path d="M1203.42 424.649H1158.5V588.003H1203.42V424.649Z" fill="#F1F5F9"/>
<path d="M1177.77 431.672H1163.64V437.445H1177.77V431.672Z" fill="white"/>
<path d="M1195.84 431.672H1181.71V437.445H1195.84V431.672Z" fill="white"/>
<path d="M1177.77 441.478H1163.64V447.25H1177.77V441.478Z" fill="white"/>
<path d="M1195.84 441.478H1181.71V447.25H1195.84V441.478Z" fill="white"/>
<path d="M1177.77 451.283H1163.64V457.055H1177.77V451.283Z" fill="white"/>
<path d="M1195.84 451.283H1181.71V457.055H1195.84V451.283Z" fill="white"/>
<path d="M1177.77 461.089H1163.64V466.861H1177.77V461.089Z" fill="white"/>
<path d="M1195.84 461.089H1181.71V466.861H1195.84V461.089Z" fill="white"/>
<path d="M1177.77 470.894H1163.64V476.666H1177.77V470.894Z" fill="white"/>
<path d="M1195.84 470.894H1181.71V476.666H1195.84V470.894Z" fill="white"/>
<path d="M1177.77 480.7H1163.64V486.472H1177.77V480.7Z" fill="white"/>
<path d="M1195.84 480.7H1181.71V486.472H1195.84V480.7Z" fill="white"/>
<path d="M1177.77 490.505H1163.64V496.277H1177.77V490.505Z" fill="white"/>
<path d="M1195.84 490.505H1181.71V496.277H1195.84V490.505Z" fill="white"/>
<path d="M1177.77 500.311H1163.64V506.083H1177.77V500.311Z" fill="white"/>
<path d="M1195.84 500.311H1181.71V506.083H1195.84V500.311Z" fill="white"/>
<path d="M1177.77 510.116H1163.64V515.888H1177.77V510.116Z" fill="white"/>
<path d="M1195.84 510.116H1181.71V515.888H1195.84V510.116Z" fill="white"/>
<path d="M1177.77 519.922H1163.64V525.694H1177.77V519.922Z" fill="white"/>
<path d="M1195.84 519.922H1181.71V525.694H1195.84V519.922Z" fill="white"/>
<path d="M1177.77 529.727H1163.64V535.499H1177.77V529.727Z" fill="white"/>
<path d="M1195.84 529.727H1181.71V535.499H1195.84V529.727Z" fill="white"/>
<path d="M1177.77 539.532H1163.64V545.304H1177.77V539.532Z" fill="white"/>
<path d="M1195.84 539.532H1181.71V545.304H1195.84V539.532Z" fill="white"/>
<path d="M1177.77 549.338H1163.64V555.11H1177.77V549.338Z" fill="white"/>
<path d="M1195.84 549.338H1181.71V555.11H1195.84V549.338Z" fill="white"/>
<path d="M1177.77 559.143H1163.64V564.915H1177.77V559.143Z" fill="white"/>
<path d="M1195.84 559.143H1181.71V564.915H1195.84V559.143Z" fill="white"/>
<path d="M1239.83 424.649H1203.42V588.003H1239.83V424.649Z" fill="#CBD5E1"/>
<path d="M1224.58 564.915H1236.17V559.143H1224.58V564.915Z" fill="#F1F5F9"/>
<path d="M1209.74 564.915H1221.33V559.143H1209.74V564.915Z" fill="#F1F5F9"/>
<path d="M1224.58 555.11H1236.17V549.338H1224.58V555.11Z" fill="#F1F5F9"/>
<path d="M1209.74 555.11H1221.33V549.338H1209.74V555.11Z" fill="#F1F5F9"/>
<path d="M1224.58 545.304H1236.17V539.532H1224.58V545.304Z" fill="#F1F5F9"/>
<path d="M1209.74 545.304H1221.33V539.532H1209.74V545.304Z" fill="#F1F5F9"/>
<path d="M1224.58 535.499H1236.17V529.727H1224.58V535.499Z" fill="#F1F5F9"/>
<path d="M1209.74 535.499H1221.33V529.727H1209.74V535.499Z" fill="#F1F5F9"/>
<path d="M1224.58 525.694H1236.17V519.922H1224.58V525.694Z" fill="#F1F5F9"/>
<path d="M1209.74 525.693H1221.33V519.921H1209.74V525.693Z" fill="#F1F5F9"/>
<path d="M1224.58 515.888H1236.17V510.116H1224.58V515.888Z" fill="#F1F5F9"/>
<path d="M1209.74 515.888H1221.33V510.116H1209.74V515.888Z" fill="#F1F5F9"/>
<path d="M1224.58 506.083H1236.17V500.311H1224.58V506.083Z" fill="#F1F5F9"/>
<path d="M1209.74 506.083H1221.33V500.311H1209.74V506.083Z" fill="#F1F5F9"/>
<path d="M1224.58 496.291H1236.17V490.519H1224.58V496.291Z" fill="#F1F5F9"/>
<path d="M1209.74 496.291H1221.33V490.519H1209.74V496.291Z" fill="#F1F5F9"/>
<path d="M1224.58 486.486H1236.17V480.714H1224.58V486.486Z" fill="#F1F5F9"/>
<path d="M1209.74 486.486H1221.33V480.714H1209.74V486.486Z" fill="#F1F5F9"/>
<path d="M1224.58 476.68H1236.17V470.908H1224.58V476.68Z" fill="#F1F5F9"/>
<path d="M1209.74 476.68H1221.33V470.908H1209.74V476.68Z" fill="#F1F5F9"/>
<path d="M1224.58 466.875H1236.17V461.103H1224.58V466.875Z" fill="#F1F5F9"/>
<path d="M1209.74 466.875H1221.33V461.103H1209.74V466.875Z" fill="#F1F5F9"/>
<path d="M1224.58 457.07H1236.17V451.298H1224.58V457.07Z" fill="#F1F5F9"/>
<path d="M1209.74 457.069H1221.33V451.297H1209.74V457.069Z" fill="#F1F5F9"/>
<path d="M1224.58 447.264H1236.17V441.492H1224.58V447.264Z" fill="#F1F5F9"/>
<path d="M1209.74 447.264H1221.33V441.492H1209.74V447.264Z" fill="#F1F5F9"/>
<path d="M1224.58 437.459H1236.17V431.687H1224.58V437.459Z" fill="#F1F5F9"/>
<path d="M1209.74 437.459H1221.33V431.687H1209.74V437.459Z" fill="#F1F5F9"/>
</g>
<g style="mix-blend-mode:multiply">
<path d="M334.538 343.911H282.303V588.003H334.538V343.911Z" fill="#F1F5F9"/>
<path d="M334.537 338.57H281.051V343.911H334.537V338.57Z" fill="#CBD5E1"/>
<path d="M292.325 351.796H287.029V588.017H292.325V351.796Z" fill="white"/>
<path d="M301.691 351.796H296.395V588.017H301.691V351.796Z" fill="white"/>
<path d="M311.074 351.796H305.778V588.017H311.074V351.796Z" fill="white"/>
<path d="M320.441 351.796H315.146V588.017H320.441V351.796Z" fill="white"/>
<path d="M329.811 351.796H324.515V588.017H329.811V351.796Z" fill="white"/>
<path d="M292.325 358.542H287.029V369.085H292.325V358.542Z" fill="#F1F5F9"/>
<path d="M301.691 358.542H296.395V369.085H301.691V358.542Z" fill="#F1F5F9"/>
<path d="M311.074 358.542H305.778V369.085H311.074V358.542Z" fill="#F1F5F9"/>
<path d="M320.441 358.542H315.146V369.085H320.441V358.542Z" fill="#F1F5F9"/>
<path d="M329.811 358.542H324.515V369.085H329.811V358.542Z" fill="#F1F5F9"/>
<path d="M292.325 375.691H287.029V386.248H292.325V375.691Z" fill="#F1F5F9"/>
<path d="M301.691 375.691H296.395V386.248H301.691V375.691Z" fill="#F1F5F9"/>
<path d="M311.074 375.691H305.778V386.248H311.074V375.691Z" fill="#F1F5F9"/>
<path d="M320.441 375.691H315.146V386.248H320.441V375.691Z" fill="#F1F5F9"/>
<path d="M329.811 375.691H324.515V386.248H329.811V375.691Z" fill="#F1F5F9"/>
<path d="M292.325 392.841H287.029V403.383H292.325V392.841Z" fill="#F1F5F9"/>
<path d="M301.691 392.841H296.395V403.383H301.691V392.841Z" fill="#F1F5F9"/>
<path d="M311.074 392.841H305.778V403.383H311.074V392.841Z" fill="#F1F5F9"/>
<path d="M320.441 392.841H315.146V403.383H320.441V392.841Z" fill="#F1F5F9"/>
<path d="M329.811 392.841H324.515V403.383H329.811V392.841Z" fill="#F1F5F9"/>
<path d="M292.325 409.975H287.029V420.532H292.325V409.975Z" fill="#F1F5F9"/>
<path d="M301.691 409.975H296.395V420.532H301.691V409.975Z" fill="#F1F5F9"/>
<path d="M311.074 409.975H305.778V420.532H311.074V409.975Z" fill="#F1F5F9"/>
<path d="M320.441 409.975H315.146V420.532H320.441V409.975Z" fill="#F1F5F9"/>
<path d="M329.811 409.975H324.515V420.532H329.811V409.975Z" fill="#F1F5F9"/>
<path d="M292.325 427.125H287.029V437.681H292.325V427.125Z" fill="#F1F5F9"/>
<path d="M301.691 427.125H296.395V437.681H301.691V427.125Z" fill="#F1F5F9"/>
<path d="M311.074 427.124H305.778V437.681H311.074V427.124Z" fill="#F1F5F9"/>
<path d="M320.441 427.124H315.146V437.681H320.441V427.124Z" fill="#F1F5F9"/>
<path d="M329.811 427.125H324.515V437.681H329.811V427.125Z" fill="#F1F5F9"/>
<path d="M292.325 444.274H287.029V454.831H292.325V444.274Z" fill="#F1F5F9"/>
<path d="M301.691 444.274H296.395V454.831H301.691V444.274Z" fill="#F1F5F9"/>
<path d="M311.074 444.274H305.778V454.831H311.074V444.274Z" fill="#F1F5F9"/>
<path d="M320.441 444.274H315.146V454.831H320.441V444.274Z" fill="#F1F5F9"/>
<path d="M329.811 444.274H324.515V454.831H329.811V444.274Z" fill="#F1F5F9"/>
<path d="M292.325 461.423H287.029V471.979H292.325V461.423Z" fill="#F1F5F9"/>
<path d="M301.691 461.423H296.395V471.979H301.691V461.423Z" fill="#F1F5F9"/>
<path d="M311.074 461.423H305.778V471.979H311.074V461.423Z" fill="#F1F5F9"/>
<path d="M320.441 461.423H315.146V471.979H320.441V461.423Z" fill="#F1F5F9"/>
<path d="M329.811 461.423H324.515V471.979H329.811V461.423Z" fill="#F1F5F9"/>
<path d="M292.325 478.558H287.029V489.115H292.325V478.558Z" fill="#F1F5F9"/>
<path d="M301.691 478.558H296.395V489.115H301.691V478.558Z" fill="#F1F5F9"/>
<path d="M311.074 478.558H305.778V489.114H311.074V478.558Z" fill="#F1F5F9"/>
<path d="M320.441 478.558H315.146V489.114H320.441V478.558Z" fill="#F1F5F9"/>
<path d="M329.811 478.558H324.515V489.115H329.811V478.558Z" fill="#F1F5F9"/>
<path d="M292.325 495.707H287.029V506.25H292.325V495.707Z" fill="#F1F5F9"/>
<path d="M301.691 495.707H296.395V506.25H301.691V495.707Z" fill="#F1F5F9"/>
<path d="M311.074 495.707H305.778V506.25H311.074V495.707Z" fill="#F1F5F9"/>
<path d="M320.441 495.707H315.146V506.25H320.441V495.707Z" fill="#F1F5F9"/>
<path d="M329.811 495.707H324.515V506.25H329.811V495.707Z" fill="#F1F5F9"/>
<path d="M292.325 512.856H287.029V523.399H292.325V512.856Z" fill="#F1F5F9"/>
<path d="M301.691 512.856H296.395V523.399H301.691V512.856Z" fill="#F1F5F9"/>
<path d="M311.074 512.856H305.778V523.399H311.074V512.856Z" fill="#F1F5F9"/>
<path d="M320.441 512.856H315.146V523.399H320.441V512.856Z" fill="#F1F5F9"/>
<path d="M329.811 512.856H324.515V523.399H329.811V512.856Z" fill="#F1F5F9"/>
<path d="M292.325 529.991H287.029V540.534H292.325V529.991Z" fill="#F1F5F9"/>
<path d="M301.691 529.991H296.395V540.534H301.691V529.991Z" fill="#F1F5F9"/>
<path d="M311.074 529.992H305.778V540.534H311.074V529.992Z" fill="#F1F5F9"/>
<path d="M320.441 529.992H315.146V540.534H320.441V529.992Z" fill="#F1F5F9"/>
<path d="M329.811 529.991H324.515V540.534H329.811V529.991Z" fill="#F1F5F9"/>
<path d="M292.325 547.141H287.029V557.683H292.325V547.141Z" fill="#F1F5F9"/>
<path d="M301.691 547.141H296.395V557.683H301.691V547.141Z" fill="#F1F5F9"/>
<path d="M311.074 547.141H305.778V557.683H311.074V547.141Z" fill="#F1F5F9"/>
<path d="M320.441 547.141H315.146V557.683H320.441V547.141Z" fill="#F1F5F9"/>
<path d="M329.811 547.141H324.515V557.683H329.811V547.141Z" fill="#F1F5F9"/>
<path d="M292.325 564.289H287.029V574.832H292.325V564.289Z" fill="#F1F5F9"/>
<path d="M301.691 564.289H296.395V574.832H301.691V564.289Z" fill="#F1F5F9"/>
<path d="M311.074 564.289H305.778V574.832H311.074V564.289Z" fill="#F1F5F9"/>
<path d="M320.441 564.289H315.146V574.832H320.441V564.289Z" fill="#F1F5F9"/>
<path d="M329.811 564.289H324.515V574.832H329.811V564.289Z" fill="#F1F5F9"/>
<path d="M292.325 581.439H287.029V588.017H292.325V581.439Z" fill="#F1F5F9"/>
<path d="M301.691 581.439H296.395V588.017H301.691V581.439Z" fill="#F1F5F9"/>
<path d="M311.074 581.439H305.778V588.018H311.074V581.439Z" fill="#F1F5F9"/>
<path d="M320.441 581.439H315.146V588.018H320.441V581.439Z" fill="#F1F5F9"/>
<path d="M329.811 581.439H324.515V588.017H329.811V581.439Z" fill="#F1F5F9"/>
<path d="M368.078 343.911H334.538V588.004H368.078V343.911Z" fill="#E2E8F0"/>
<path d="M369.524 338.57H334.538V343.911H369.524V338.57Z" fill="#CBD5E1"/>
<path d="M344.56 351.796H339.264V588.017H344.56V351.796Z" fill="#CBD5E1"/>
<path d="M353.926 351.796H348.631V588.017H353.926V351.796Z" fill="#CBD5E1"/>
<path d="M363.309 351.796H358.013V588.017H363.309V351.796Z" fill="#CBD5E1"/>
<path d="M344.56 358.542H339.264V369.085H344.56V358.542Z" fill="#E2E8F0"/>
<path d="M353.926 358.542H348.631V369.085H353.926V358.542Z" fill="#E2E8F0"/>
<path d="M363.309 358.542H358.013V369.085H363.309V358.542Z" fill="#E2E8F0"/>
<path d="M344.56 375.691H339.264V386.248H344.56V375.691Z" fill="#E2E8F0"/>
<path d="M353.926 375.691H348.631V386.248H353.926V375.691Z" fill="#E2E8F0"/>
<path d="M363.309 375.691H358.013V386.248H363.309V375.691Z" fill="#E2E8F0"/>
<path d="M344.561 392.841H339.265V403.383H344.561V392.841Z" fill="#E2E8F0"/>
<path d="M353.926 392.841H348.63V403.383H353.926V392.841Z" fill="#E2E8F0"/>
<path d="M363.309 392.841H358.013V403.383H363.309V392.841Z" fill="#E2E8F0"/>
<path d="M344.56 409.975H339.264V420.532H344.56V409.975Z" fill="#E2E8F0"/>
<path d="M353.926 409.975H348.631V420.532H353.926V409.975Z" fill="#E2E8F0"/>
<path d="M363.309 409.975H358.013V420.532H363.309V409.975Z" fill="#E2E8F0"/>
<path d="M344.56 427.125H339.264V437.681H344.56V427.125Z" fill="#E2E8F0"/>
<path d="M353.926 427.125H348.631V437.681H353.926V427.125Z" fill="#E2E8F0"/>
<path d="M363.309 427.125H358.013V437.681H363.309V427.125Z" fill="#E2E8F0"/>
<path d="M344.561 444.274H339.265V454.831H344.561V444.274Z" fill="#E2E8F0"/>
<path d="M353.926 444.274H348.63V454.831H353.926V444.274Z" fill="#E2E8F0"/>
<path d="M363.309 444.274H358.013V454.831H363.309V444.274Z" fill="#E2E8F0"/>
<path d="M344.56 461.423H339.264V471.979H344.56V461.423Z" fill="#E2E8F0"/>
<path d="M353.926 461.423H348.631V471.979H353.926V461.423Z" fill="#E2E8F0"/>
<path d="M363.309 461.423H358.013V471.979H363.309V461.423Z" fill="#E2E8F0"/>
<path d="M344.56 478.558H339.264V489.115H344.56V478.558Z" fill="#E2E8F0"/>
<path d="M353.926 478.558H348.631V489.115H353.926V478.558Z" fill="#E2E8F0"/>
<path d="M363.309 478.558H358.013V489.115H363.309V478.558Z" fill="#E2E8F0"/>
<path d="M344.56 495.707H339.264V506.25H344.56V495.707Z" fill="#E2E8F0"/>
<path d="M353.926 495.707H348.631V506.25H353.926V495.707Z" fill="#E2E8F0"/>
<path d="M363.309 495.707H358.013V506.25H363.309V495.707Z" fill="#E2E8F0"/>
<path d="M344.56 512.856H339.264V523.399H344.56V512.856Z" fill="#E2E8F0"/>
<path d="M353.926 512.856H348.631V523.399H353.926V512.856Z" fill="#E2E8F0"/>
<path d="M363.309 512.856H358.013V523.399H363.309V512.856Z" fill="#E2E8F0"/>
<path d="M344.56 529.991H339.264V540.534H344.56V529.991Z" fill="#E2E8F0"/>
<path d="M353.926 529.991H348.631V540.534H353.926V529.991Z" fill="#E2E8F0"/>
<path d="M363.309 529.991H358.013V540.534H363.309V529.991Z" fill="#E2E8F0"/>
<path d="M344.56 547.141H339.264V557.683H344.56V547.141Z" fill="#E2E8F0"/>
<path d="M353.926 547.141H348.631V557.683H353.926V547.141Z" fill="#E2E8F0"/>
<path d="M363.309 547.141H358.013V557.683H363.309V547.141Z" fill="#E2E8F0"/>
<path d="M344.561 564.289H339.265V574.832H344.561V564.289Z" fill="#E2E8F0"/>
<path d="M353.926 564.289H348.63V574.832H353.926V564.289Z" fill="#E2E8F0"/>
<path d="M363.309 564.289H358.013V574.832H363.309V564.289Z" fill="#E2E8F0"/>
<path d="M344.56 581.439H339.264V588.017H344.56V581.439Z" fill="#E2E8F0"/>
<path d="M353.926 581.439H348.631V588.017H353.926V581.439Z" fill="#E2E8F0"/>
<path d="M363.309 581.439H358.013V588.017H363.309V581.439Z" fill="#E2E8F0"/>
<path d="M252.445 433.62H200.432V588.004H252.445V433.62Z" fill="#F1F5F9"/>
<path d="M252.446 420.532H207.828V433.62H252.446V420.532Z" fill="#CBD5E1"/>
<path d="M246.732 440.449H206.131V588.004H246.732V440.449Z" fill="#E2E8F0"/>
<path d="M246.732 454.538H206.131V458.029H246.732V454.538Z" fill="white"/>
<path d="M246.732 468.975H206.131V472.466H246.732V468.975Z" fill="white"/>
<path d="M246.732 483.426H206.131V486.917H246.732V483.426Z" fill="white"/>
<path d="M246.732 497.863H206.131V501.354H246.732V497.863Z" fill="white"/>
<path d="M246.732 512.313H206.131V515.805H246.732V512.313Z" fill="white"/>
<path d="M246.732 526.75H206.131V530.241H246.732V526.75Z" fill="white"/>
<path d="M246.732 541.188H206.131V544.679H246.732V541.188Z" fill="white"/>
<path d="M246.732 555.638H206.131V559.129H246.732V555.638Z" fill="white"/>
<path d="M246.732 570.076H206.131V573.567H246.732V570.076Z" fill="white"/>
<path d="M246.732 584.526H206.131V588.017H246.732V584.526Z" fill="white"/>
<path d="M285.026 433.62H252.445V588.004H285.026V433.62Z" fill="#E2E8F0"/>
<path d="M280.134 420.532H252.445V433.62H280.134V420.532Z" fill="#94A3B8"/>
<path d="M281.983 440.449H256.935V588.004H281.983V440.449Z" fill="#CBD5E1"/>
<path d="M281.983 454.538H256.935V458.029H281.983V454.538Z" fill="white"/>
<path d="M281.983 468.975H256.935V472.466H281.983V468.975Z" fill="white"/>
<path d="M281.983 483.426H256.935V486.917H281.983V483.426Z" fill="white"/>
<path d="M281.983 497.863H256.935V501.354H281.983V497.863Z" fill="white"/>
<path d="M281.983 512.313H256.935V515.805H281.983V512.313Z" fill="white"/>
<path d="M281.983 526.75H256.935V530.241H281.983V526.75Z" fill="white"/>
<path d="M281.983 541.188H256.935V544.679H281.983V541.188Z" fill="white"/>
<path d="M281.983 555.638H256.935V559.129H281.983V555.638Z" fill="white"/>
<path d="M281.983 570.076H256.935V573.567H281.983V570.076Z" fill="white"/>
<path d="M281.983 584.526H256.935V588.017H281.983V584.526Z" fill="white"/>
<path d="M387.314 481.562H334.328V588.003H387.314V481.562Z" fill="#CBD5E1"/>
<path d="M352.038 490.783H342.655V497.307H352.038V490.783Z" fill="#E2E8F0"/>
<path d="M352.038 504.706H342.655V511.229H352.038V504.706Z" fill="#E2E8F0"/>
<path d="M352.038 518.642H342.655V525.165H352.038V518.642Z" fill="#E2E8F0"/>
<path d="M352.038 532.564H342.655V539.087H352.038V532.564Z" fill="#E2E8F0"/>
<path d="M352.038 546.501H342.655V553.024H352.038V546.501Z" fill="#E2E8F0"/>
<path d="M352.038 560.423H342.655V566.946H352.038V560.423Z" fill="#E2E8F0"/>
<path d="M352.038 574.359H342.655V580.882H352.038V574.359Z" fill="#E2E8F0"/>
<path d="M365.533 490.783H356.151V497.307H365.533V490.783Z" fill="#E2E8F0"/>
<path d="M365.533 504.706H356.151V511.229H365.533V504.706Z" fill="#E2E8F0"/>
<path d="M365.533 518.642H356.151V525.165H365.533V518.642Z" fill="#E2E8F0"/>
<path d="M365.533 532.564H356.151V539.087H365.533V532.564Z" fill="#E2E8F0"/>
<path d="M365.533 546.501H356.151V553.024H365.533V546.501Z" fill="#E2E8F0"/>
<path d="M365.533 560.423H356.151V566.946H365.533V560.423Z" fill="#E2E8F0"/>
<path d="M365.533 574.359H356.151V580.882H365.533V574.359Z" fill="#E2E8F0"/>
<path d="M378.99 490.783H369.608V497.307H378.99V490.783Z" fill="#E2E8F0"/>
<path d="M378.99 504.706H369.608V511.229H378.99V504.706Z" fill="#E2E8F0"/>
<path d="M378.99 518.642H369.608V525.165H378.99V518.642Z" fill="#E2E8F0"/>
<path d="M378.99 532.564H369.608V539.087H378.99V532.564Z" fill="#E2E8F0"/>
<path d="M378.99 546.501H369.608V553.024H378.99V546.501Z" fill="#E2E8F0"/>
<path d="M378.99 560.423H369.608V566.946H378.99V560.423Z" fill="#E2E8F0"/>
<path d="M378.99 574.359H369.608V580.882H378.99V574.359Z" fill="#E2E8F0"/>
<path d="M387.315 470.477H352.037V481.562H387.315V470.477Z" fill="#E2E8F0"/>
<path d="M387.314 463.607H364.949V470.477H387.314V463.607Z" fill="#F1F5F9"/>
<path d="M424.482 481.562H387.314V588.003H424.482V481.562Z" fill="#94A3B8"/>
<path d="M413.042 579.839H420.673V573.316H413.042V579.839Z" fill="#CBD5E1"/>
<path d="M413.042 565.917H420.673V559.394H413.042V565.917Z" fill="#CBD5E1"/>
<path d="M413.042 551.981H420.673V545.458H413.042V551.981Z" fill="#CBD5E1"/>
<path d="M413.042 538.058H420.673V531.535H413.042V538.058Z" fill="#CBD5E1"/>
<path d="M413.042 524.122H420.673V517.599H413.042V524.122Z" fill="#CBD5E1"/>
<path d="M413.042 510.2H420.673V503.677H413.042V510.2Z" fill="#CBD5E1"/>
<path d="M413.042 496.263H420.673V489.74H413.042V496.263Z" fill="#CBD5E1"/>
<path d="M402.063 579.839H409.694V573.316H402.063V579.839Z" fill="#CBD5E1"/>
<path d="M402.063 565.917H409.694V559.394H402.063V565.917Z" fill="#CBD5E1"/>
<path d="M402.063 551.981H409.694V545.458H402.063V551.981Z" fill="#CBD5E1"/>
<path d="M402.063 538.058H409.694V531.535H402.063V538.058Z" fill="#CBD5E1"/>
<path d="M402.063 524.122H409.694V517.599H402.063V524.122Z" fill="#CBD5E1"/>
<path d="M402.063 510.2H409.694V503.677H402.063V510.2Z" fill="#CBD5E1"/>
<path d="M402.063 496.263H409.694V489.74H402.063V496.263Z" fill="#CBD5E1"/>
<path d="M391.123 579.839H398.754V573.316H391.123V579.839Z" fill="#CBD5E1"/>
<path d="M391.123 565.917H398.754V559.394H391.123V565.917Z" fill="#CBD5E1"/>
<path d="M391.123 551.98H398.754V545.457H391.123V551.98Z" fill="#CBD5E1"/>
<path d="M391.123 538.058H398.754V531.535H391.123V538.058Z" fill="#CBD5E1"/>
<path d="M391.123 524.122H398.754V517.599H391.123V524.122Z" fill="#CBD5E1"/>
<path d="M391.123 510.199H398.754V503.676H391.123V510.199Z" fill="#CBD5E1"/>
<path d="M391.123 496.263H398.754V489.74H391.123V496.263Z" fill="#CBD5E1"/>
<path d="M418.852 470.477H387.314V481.562H418.852V470.477Z" fill="#CBD5E1"/>
<path d="M404.41 463.607H387.314V470.477H404.41V463.607Z" fill="#E2E8F0"/>
</g>
<g style="mix-blend-mode:multiply">
<path d="M865.509 343.911H813.273V588.004H865.509V343.911Z" fill="#F1F5F9"/>
<path d="M865.508 338.57H812.022V343.911H865.508V338.57Z" fill="#CBD5E1"/>
<path d="M823.296 351.797H818V588.017H823.296V351.797Z" fill="white"/>
<path d="M832.662 351.797H827.367V588.017H832.662V351.797Z" fill="white"/>
<path d="M842.044 351.797H836.748V588.017H842.044V351.797Z" fill="white"/>
<path d="M851.412 351.797H846.116V588.017H851.412V351.797Z" fill="white"/>
<path d="M860.782 351.797H855.486V588.017H860.782V351.797Z" fill="white"/>
<path d="M823.296 358.542H818V369.085H823.296V358.542Z" fill="#F1F5F9"/>
<path d="M832.663 358.542H827.367V369.085H832.663V358.542Z" fill="#F1F5F9"/>
<path d="M842.044 358.542H836.748V369.085H842.044V358.542Z" fill="#F1F5F9"/>
<path d="M851.412 358.542H846.116V369.085H851.412V358.542Z" fill="#F1F5F9"/>
<path d="M860.782 358.542H855.486V369.085H860.782V358.542Z" fill="#F1F5F9"/>
<path d="M823.296 375.691H818V386.248H823.296V375.691Z" fill="#F1F5F9"/>
<path d="M832.662 375.691H827.367V386.248H832.662V375.691Z" fill="#F1F5F9"/>
<path d="M842.044 375.691H836.748V386.248H842.044V375.691Z" fill="#F1F5F9"/>
<path d="M851.412 375.691H846.116V386.248H851.412V375.691Z" fill="#F1F5F9"/>
<path d="M860.782 375.691H855.486V386.248H860.782V375.691Z" fill="#F1F5F9"/>
<path d="M823.296 392.841H818V403.383H823.296V392.841Z" fill="#F1F5F9"/>
<path d="M832.662 392.841H827.367V403.383H832.662V392.841Z" fill="#F1F5F9"/>
<path d="M842.044 392.841H836.748V403.383H842.044V392.841Z" fill="#F1F5F9"/>
<path d="M851.412 392.84H846.116V403.383H851.412V392.84Z" fill="#F1F5F9"/>
<path d="M860.782 392.841H855.486V403.383H860.782V392.841Z" fill="#F1F5F9"/>
<path d="M823.296 409.976H818V420.532H823.296V409.976Z" fill="#F1F5F9"/>
<path d="M832.662 409.976H827.367V420.532H832.662V409.976Z" fill="#F1F5F9"/>
<path d="M842.044 409.976H836.748V420.532H842.044V409.976Z" fill="#F1F5F9"/>
<path d="M851.412 409.976H846.116V420.532H851.412V409.976Z" fill="#F1F5F9"/>
<path d="M860.782 409.976H855.486V420.532H860.782V409.976Z" fill="#F1F5F9"/>
<path d="M823.296 427.124H818V437.681H823.296V427.124Z" fill="#F1F5F9"/>
<path d="M832.662 427.124H827.367V437.681H832.662V427.124Z" fill="#F1F5F9"/>
<path d="M842.044 427.124H836.748V437.681H842.044V427.124Z" fill="#F1F5F9"/>
<path d="M851.412 427.124H846.116V437.681H851.412V427.124Z" fill="#F1F5F9"/>
<path d="M860.782 427.124H855.486V437.681H860.782V427.124Z" fill="#F1F5F9"/>
<path d="M823.296 444.274H818V454.831H823.296V444.274Z" fill="#F1F5F9"/>
<path d="M832.662 444.274H827.367V454.831H832.662V444.274Z" fill="#F1F5F9"/>
<path d="M842.044 444.274H836.748V454.831H842.044V444.274Z" fill="#F1F5F9"/>
<path d="M851.412 444.274H846.116V454.83H851.412V444.274Z" fill="#F1F5F9"/>
<path d="M860.782 444.274H855.486V454.831H860.782V444.274Z" fill="#F1F5F9"/>
<path d="M823.296 461.423H818V471.979H823.296V461.423Z" fill="#F1F5F9"/>
<path d="M832.662 461.423H827.367V471.979H832.662V461.423Z" fill="#F1F5F9"/>
<path d="M842.044 461.423H836.748V471.979H842.044V461.423Z" fill="#F1F5F9"/>
<path d="M851.412 461.423H846.116V471.98H851.412V461.423Z" fill="#F1F5F9"/>
<path d="M860.782 461.423H855.486V471.979H860.782V461.423Z" fill="#F1F5F9"/>
<path d="M823.296 478.558H818V489.114H823.296V478.558Z" fill="#F1F5F9"/>
<path d="M832.662 478.558H827.367V489.114H832.662V478.558Z" fill="#F1F5F9"/>
<path d="M842.044 478.558H836.748V489.114H842.044V478.558Z" fill="#F1F5F9"/>
<path d="M851.412 478.558H846.116V489.114H851.412V478.558Z" fill="#F1F5F9"/>
<path d="M860.782 478.558H855.486V489.114H860.782V478.558Z" fill="#F1F5F9"/>
<path d="M823.296 495.708H818V506.25H823.296V495.708Z" fill="#F1F5F9"/>
<path d="M832.663 495.708H827.367V506.25H832.663V495.708Z" fill="#F1F5F9"/>
<path d="M842.044 495.708H836.748V506.25H842.044V495.708Z" fill="#F1F5F9"/>
<path d="M851.412 495.708H846.116V506.25H851.412V495.708Z" fill="#F1F5F9"/>
<path d="M860.782 495.708H855.486V506.25H860.782V495.708Z" fill="#F1F5F9"/>
<path d="M823.296 512.857H818V523.399H823.296V512.857Z" fill="#F1F5F9"/>
<path d="M832.663 512.857H827.367V523.399H832.663V512.857Z" fill="#F1F5F9"/>
<path d="M842.044 512.857H836.748V523.399H842.044V512.857Z" fill="#F1F5F9"/>
<path d="M851.413 512.857H846.117V523.399H851.413V512.857Z" fill="#F1F5F9"/>
<path d="M860.782 512.857H855.487V523.399H860.782V512.857Z" fill="#F1F5F9"/>
<path d="M823.296 529.991H818.001V540.534H823.296V529.991Z" fill="#F1F5F9"/>
<path d="M832.663 529.991H827.367V540.534H832.663V529.991Z" fill="#F1F5F9"/>
<path d="M842.044 529.991H836.748V540.534H842.044V529.991Z" fill="#F1F5F9"/>
<path d="M851.413 529.991H846.117V540.534H851.413V529.991Z" fill="#F1F5F9"/>
<path d="M860.782 529.991H855.487V540.534H860.782V529.991Z" fill="#F1F5F9"/>
<path d="M823.296 547.141H818.001V557.683H823.296V547.141Z" fill="#F1F5F9"/>
<path d="M832.663 547.141H827.367V557.683H832.663V547.141Z" fill="#F1F5F9"/>
<path d="M842.044 547.141H836.748V557.683H842.044V547.141Z" fill="#F1F5F9"/>
<path d="M851.413 547.141H846.117V557.683H851.413V547.141Z" fill="#F1F5F9"/>
<path d="M860.782 547.141H855.487V557.683H860.782V547.141Z" fill="#F1F5F9"/>
<path d="M823.296 564.29H818V574.833H823.296V564.29Z" fill="#F1F5F9"/>
<path d="M832.663 564.29H827.367V574.833H832.663V564.29Z" fill="#F1F5F9"/>
<path d="M842.044 564.29H836.748V574.833H842.044V564.29Z" fill="#F1F5F9"/>
<path d="M851.413 564.29H846.117V574.833H851.413V564.29Z" fill="#F1F5F9"/>
<path d="M860.782 564.29H855.487V574.833H860.782V564.29Z" fill="#F1F5F9"/>
<path d="M823.296 581.439H818.001V588.017H823.296V581.439Z" fill="#F1F5F9"/>
<path d="M832.663 581.439H827.367V588.017H832.663V581.439Z" fill="#F1F5F9"/>
<path d="M842.044 581.439H836.748V588.017H842.044V581.439Z" fill="#F1F5F9"/>
<path d="M851.413 581.439H846.117V588.017H851.413V581.439Z" fill="#F1F5F9"/>
<path d="M860.782 581.439H855.487V588.017H860.782V581.439Z" fill="#F1F5F9"/>
<path d="M899.049 343.911H865.509V588.004H899.049V343.911Z" fill="#E2E8F0"/>
<path d="M900.495 338.57H865.509V343.911H900.495V338.57Z" fill="#CBD5E1"/>
<path d="M875.531 351.797H870.235V588.017H875.531V351.797Z" fill="#CBD5E1"/>
<path d="M884.897 351.797H879.601V588.017H884.897V351.797Z" fill="#CBD5E1"/>
<path d="M894.28 351.797H888.984V588.017H894.28V351.797Z" fill="#CBD5E1"/>
<path d="M875.531 358.542H870.236V369.085H875.531V358.542Z" fill="#E2E8F0"/>
<path d="M884.897 358.542H879.601V369.085H884.897V358.542Z" fill="#E2E8F0"/>
<path d="M894.28 358.542H888.984V369.085H894.28V358.542Z" fill="#E2E8F0"/>
<path d="M875.531 375.691H870.235V386.248H875.531V375.691Z" fill="#E2E8F0"/>
<path d="M884.897 375.691H879.601V386.248H884.897V375.691Z" fill="#E2E8F0"/>
<path d="M894.28 375.691H888.984V386.248H894.28V375.691Z" fill="#E2E8F0"/>
<path d="M875.531 392.841H870.235V403.383H875.531V392.841Z" fill="#E2E8F0"/>
<path d="M884.897 392.841H879.601V403.383H884.897V392.841Z" fill="#E2E8F0"/>
<path d="M894.28 392.841H888.984V403.383H894.28V392.841Z" fill="#E2E8F0"/>
<path d="M875.531 409.976H870.235V420.532H875.531V409.976Z" fill="#E2E8F0"/>
<path d="M884.897 409.976H879.601V420.532H884.897V409.976Z" fill="#E2E8F0"/>
<path d="M894.28 409.976H888.984V420.532H894.28V409.976Z" fill="#E2E8F0"/>
<path d="M875.531 427.124H870.235V437.681H875.531V427.124Z" fill="#E2E8F0"/>
<path d="M884.897 427.124H879.601V437.681H884.897V427.124Z" fill="#E2E8F0"/>
<path d="M894.28 427.124H888.984V437.681H894.28V427.124Z" fill="#E2E8F0"/>
<path d="M875.531 444.274H870.235V454.831H875.531V444.274Z" fill="#E2E8F0"/>
<path d="M884.897 444.274H879.601V454.831H884.897V444.274Z" fill="#E2E8F0"/>
<path d="M894.28 444.274H888.984V454.831H894.28V444.274Z" fill="#E2E8F0"/>
<path d="M875.531 461.423H870.235V471.979H875.531V461.423Z" fill="#E2E8F0"/>
<path d="M884.897 461.423H879.601V471.979H884.897V461.423Z" fill="#E2E8F0"/>
<path d="M894.28 461.423H888.984V471.979H894.28V461.423Z" fill="#E2E8F0"/>
<path d="M875.531 478.558H870.235V489.114H875.531V478.558Z" fill="#E2E8F0"/>
<path d="M884.897 478.558H879.601V489.114H884.897V478.558Z" fill="#E2E8F0"/>
<path d="M894.28 478.558H888.984V489.114H894.28V478.558Z" fill="#E2E8F0"/>
<path d="M875.531 495.708H870.236V506.25H875.531V495.708Z" fill="#E2E8F0"/>
<path d="M884.897 495.708H879.601V506.25H884.897V495.708Z" fill="#E2E8F0"/>
<path d="M894.28 495.708H888.984V506.25H894.28V495.708Z" fill="#E2E8F0"/>
<path d="M875.531 512.857H870.236V523.399H875.531V512.857Z" fill="#E2E8F0"/>
<path d="M884.898 512.857H879.602V523.399H884.898V512.857Z" fill="#E2E8F0"/>
<path d="M894.28 512.857H888.984V523.399H894.28V512.857Z" fill="#E2E8F0"/>
<path d="M875.531 529.991H870.236V540.534H875.531V529.991Z" fill="#E2E8F0"/>
<path d="M884.897 529.991H879.602V540.534H884.897V529.991Z" fill="#E2E8F0"/>
<path d="M894.28 529.991H888.984V540.534H894.28V529.991Z" fill="#E2E8F0"/>
<path d="M875.531 547.141H870.236V557.683H875.531V547.141Z" fill="#E2E8F0"/>
<path d="M884.897 547.141H879.602V557.683H884.897V547.141Z" fill="#E2E8F0"/>
<path d="M894.28 547.141H888.984V557.683H894.28V547.141Z" fill="#E2E8F0"/>
<path d="M875.531 564.29H870.236V574.833H875.531V564.29Z" fill="#E2E8F0"/>
<path d="M884.898 564.29H879.602V574.833H884.898V564.29Z" fill="#E2E8F0"/>
<path d="M894.28 564.29H888.984V574.833H894.28V564.29Z" fill="#E2E8F0"/>
<path d="M875.531 581.439H870.236V588.017H875.531V581.439Z" fill="#E2E8F0"/>
<path d="M884.897 581.439H879.602V588.017H884.897V581.439Z" fill="#E2E8F0"/>
<path d="M894.28 581.439H888.984V588.017H894.28V581.439Z" fill="#E2E8F0"/>
<path d="M783.416 433.62H731.403V588.003H783.416V433.62Z" fill="#F1F5F9"/>
<path d="M783.417 420.532H738.799V433.62H783.417V420.532Z" fill="#CBD5E1"/>
<path d="M777.703 440.449H737.102V588.003H777.703V440.449Z" fill="#E2E8F0"/>
<path d="M777.703 454.538H737.102V458.029H777.703V454.538Z" fill="white"/>
<path d="M777.703 468.975H737.102V472.466H777.703V468.975Z" fill="white"/>
<path d="M777.703 483.426H737.102V486.917H777.703V483.426Z" fill="white"/>
<path d="M777.703 497.863H737.102V501.354H777.703V497.863Z" fill="white"/>
<path d="M777.703 512.314H737.102V515.805H777.703V512.314Z" fill="white"/>
<path d="M777.703 526.751H737.102V530.242H777.703V526.751Z" fill="white"/>
<path d="M777.703 541.188H737.102V544.679H777.703V541.188Z" fill="white"/>
<path d="M777.703 555.639H737.102V559.13H777.703V555.639Z" fill="white"/>
<path d="M777.703 570.076H737.102V573.567H777.703V570.076Z" fill="white"/>
<path d="M777.703 584.526H737.102V588.017H777.703V584.526Z" fill="white"/>
<path d="M815.997 433.62H783.416V588.003H815.997V433.62Z" fill="#E2E8F0"/>
<path d="M811.105 420.532H783.416V433.62H811.105V420.532Z" fill="#94A3B8"/>
<path d="M812.954 440.449H787.906V588.003H812.954V440.449Z" fill="#CBD5E1"/>
<path d="M812.954 454.538H787.906V458.029H812.954V454.538Z" fill="white"/>
<path d="M812.954 468.975H787.906V472.466H812.954V468.975Z" fill="white"/>
<path d="M812.954 483.426H787.906V486.917H812.954V483.426Z" fill="white"/>
<path d="M812.954 497.863H787.906V501.354H812.954V497.863Z" fill="white"/>
<path d="M812.954 512.314H787.906V515.805H812.954V512.314Z" fill="white"/>
<path d="M812.954 526.751H787.906V530.242H812.954V526.751Z" fill="white"/>
<path d="M812.954 541.188H787.906V544.679H812.954V541.188Z" fill="white"/>
<path d="M812.954 555.639H787.906V559.13H812.954V555.639Z" fill="white"/>
<path d="M812.954 570.076H787.906V573.567H812.954V570.076Z" fill="white"/>
<path d="M812.954 584.526H787.906V588.017H812.954V584.526Z" fill="white"/>
<path d="M918.286 481.562H865.3V588.003H918.286V481.562Z" fill="#CBD5E1"/>
<path d="M883.009 490.784H873.627V497.307H883.009V490.784Z" fill="#E2E8F0"/>
<path d="M883.009 504.706H873.627V511.229H883.009V504.706Z" fill="#E2E8F0"/>
<path d="M883.009 518.642H873.627V525.165H883.009V518.642Z" fill="#E2E8F0"/>
<path d="M883.009 532.565H873.627V539.088H883.009V532.565Z" fill="#E2E8F0"/>
<path d="M883.009 546.501H873.627V553.024H883.009V546.501Z" fill="#E2E8F0"/>
<path d="M883.009 560.423H873.627V566.946H883.009V560.423Z" fill="#E2E8F0"/>
<path d="M883.009 574.36H873.627V580.883H883.009V574.36Z" fill="#E2E8F0"/>
<path d="M896.504 490.784H887.121V497.307H896.504V490.784Z" fill="#E2E8F0"/>
<path d="M896.504 504.706H887.121V511.229H896.504V504.706Z" fill="#E2E8F0"/>
<path d="M896.504 518.642H887.122V525.165H896.504V518.642Z" fill="#E2E8F0"/>
<path d="M896.504 532.565H887.122V539.088H896.504V532.565Z" fill="#E2E8F0"/>
<path d="M896.504 546.501H887.122V553.024H896.504V546.501Z" fill="#E2E8F0"/>
<path d="M896.504 560.423H887.122V566.946H896.504V560.423Z" fill="#E2E8F0"/>
<path d="M896.504 574.36H887.122V580.883H896.504V574.36Z" fill="#E2E8F0"/>
<path d="M909.961 490.784H900.579V497.307H909.961V490.784Z" fill="#E2E8F0"/>
<path d="M909.961 504.706H900.579V511.229H909.961V504.706Z" fill="#E2E8F0"/>
<path d="M909.962 518.642H900.579V525.165H909.962V518.642Z" fill="#E2E8F0"/>
<path d="M909.962 532.565H900.579V539.088H909.962V532.565Z" fill="#E2E8F0"/>
<path d="M909.962 546.501H900.579V553.024H909.962V546.501Z" fill="#E2E8F0"/>
<path d="M909.962 560.423H900.579V566.946H909.962V560.423Z" fill="#E2E8F0"/>
<path d="M909.962 574.36H900.579V580.883H909.962V574.36Z" fill="#E2E8F0"/>
<path d="M918.286 470.477H883.008V481.562H918.286V470.477Z" fill="#E2E8F0"/>
<path d="M918.285 463.606H895.921V470.477H918.285V463.606Z" fill="#F1F5F9"/>
<path d="M955.453 481.562H918.285V588.003H955.453V481.562Z" fill="#94A3B8"/>
<path d="M944.014 579.839H951.645V573.316H944.014V579.839Z" fill="#CBD5E1"/>
<path d="M944.014 565.917H951.645V559.394H944.014V565.917Z" fill="#CBD5E1"/>
<path d="M944.014 551.981H951.645V545.458H944.014V551.981Z" fill="#CBD5E1"/>
<path d="M944.014 538.058H951.645V531.535H944.014V538.058Z" fill="#CBD5E1"/>
<path d="M944.014 524.122H951.645V517.599H944.014V524.122Z" fill="#CBD5E1"/>
<path d="M944.014 510.2H951.645V503.677H944.014V510.2Z" fill="#CBD5E1"/>
<path d="M944.014 496.264H951.645V489.741H944.014V496.264Z" fill="#CBD5E1"/>
<path d="M933.035 579.839H940.666V573.316H933.035V579.839Z" fill="#CBD5E1"/>
<path d="M933.035 565.917H940.666V559.394H933.035V565.917Z" fill="#CBD5E1"/>
<path d="M933.035 551.981H940.666V545.458H933.035V551.981Z" fill="#CBD5E1"/>
<path d="M933.035 538.058H940.666V531.535H933.035V538.058Z" fill="#CBD5E1"/>
<path d="M933.035 524.122H940.666V517.599H933.035V524.122Z" fill="#CBD5E1"/>
<path d="M933.035 510.2H940.666V503.677H933.035V510.2Z" fill="#CBD5E1"/>
<path d="M933.035 496.264H940.666V489.741H933.035V496.264Z" fill="#CBD5E1"/>
<path d="M922.094 579.839H929.725V573.316H922.094V579.839Z" fill="#CBD5E1"/>
<path d="M922.094 565.917H929.725V559.394H922.094V565.917Z" fill="#CBD5E1"/>
<path d="M922.094 551.981H929.725V545.458H922.094V551.981Z" fill="#CBD5E1"/>
<path d="M922.094 538.059H929.725V531.535H922.094V538.059Z" fill="#CBD5E1"/>
<path d="M922.094 524.122H929.725V517.599H922.094V524.122Z" fill="#CBD5E1"/>
<path d="M922.094 510.2H929.725V503.677H922.094V510.2Z" fill="#CBD5E1"/>
<path d="M922.094 496.264H929.725V489.741H922.094V496.264Z" fill="#CBD5E1"/>
<path d="M949.824 470.477H918.285V481.562H949.824V470.477Z" fill="#CBD5E1"/>
<path d="M935.382 463.606H918.285V470.477H935.382V463.606Z" fill="#E2E8F0"/>
</g>
</g>
<defs>
<clipPath id="clip0_1136_1168">
<rect width="1440" height="590" fill="white"/>
</clipPath>
</defs>
</svg>
