<svg width="40" height="40" viewBox="0 0 40 40" fill="none" xmlns="http://www.w3.org/2000/svg">
<g clip-path="url(#clip0_156_277)">
<path d="M31.6667 1.6664H8.33333C6.12401 1.66904 4.00593 2.54787 2.4437 4.1101C0.88147 5.67233 0.00264643 7.7904 0 9.99973L0 29.9997C0.00264643 32.2091 0.88147 34.3271 2.4437 35.8894C4.00593 37.4516 6.12401 38.3304 8.33333 38.3331H31.6667C33.876 38.3304 35.9941 37.4516 37.5563 35.8894C39.1185 34.3271 39.9974 32.2091 40 29.9997V9.99973C39.9974 7.7904 39.1185 5.67233 37.5563 4.1101C35.9941 2.54787 33.876 1.66904 31.6667 1.6664ZM8.33333 4.99973H31.6667C32.6646 5.00169 33.6392 5.30225 34.4649 5.86274C35.2906 6.42322 35.9298 7.21797 36.3 8.14473L23.5367 20.9097C22.5974 21.8453 21.3257 22.3705 20 22.3705C18.6743 22.3705 17.4026 21.8453 16.4633 20.9097L3.7 8.14473C4.07025 7.21797 4.70936 6.42322 5.53508 5.86274C6.3608 5.30225 7.33536 5.00169 8.33333 4.99973ZM31.6667 34.9997H8.33333C7.00725 34.9997 5.73548 34.4729 4.7978 33.5353C3.86012 32.5976 3.33333 31.3258 3.33333 29.9997V12.4997L14.1067 23.2664C15.671 24.8268 17.7904 25.7031 20 25.7031C22.2096 25.7031 24.329 24.8268 25.8933 23.2664L36.6667 12.4997V29.9997C36.6667 31.3258 36.1399 32.5976 35.2022 33.5353C34.2645 34.4729 32.9927 34.9997 31.6667 34.9997Z" fill="#FBB03B"/>
</g>
<defs>
<clipPath id="clip0_156_277">
<rect width="40" height="40" fill="white"/>
</clipPath>
</defs>
</svg>
