<svg width="40" height="40" viewBox="0 0 40 40" fill="none" xmlns="http://www.w3.org/2000/svg">
<g clip-path="url(#clip0_694_566)">
<path d="M20.0054 -0.00390625C8.94263 -0.00390625 -0.0255737 8.9643 -0.0255737 20.027C-0.0255737 31.0898 8.94263 40.0579 20.0054 40.0579C31.0681 40.0579 40.0362 31.0898 40.0362 20.027C40.0362 8.9643 31.0681 -0.00390625 20.0054 -0.00390625ZM32.4199 14.7298L33.7133 10.5481C35.4561 13.0743 36.4629 16.0348 36.6216 19.0998L33.0516 16.5848C32.4614 16.1686 32.2063 15.4197 32.4199 14.7298ZM24.3333 3.92141H24.3199L20.9865 6.34805C20.4022 6.77281 19.6108 6.77281 19.0265 6.34805L15.6932 3.92141C18.5198 3.13703 21.5066 3.13703 24.3333 3.92141ZM6.28654 10.5498L7.5799 14.7298C7.79349 15.4197 7.53841 16.1686 6.94825 16.5848L3.37825 19.0998C3.53693 16.0354 4.5438 13.0753 6.28654 10.5498ZM6.67825 29.9731L11.2566 29.9881C11.9793 29.9896 12.6188 30.4567 12.84 31.1448L14.28 35.6331C11.2532 34.5191 8.61318 32.5534 6.67825 29.9731ZM25.7215 35.6331L27.1599 31.1448C27.3808 30.4573 28.0194 29.9903 28.7415 29.9881L33.3215 29.9731C31.3876 32.5537 28.7481 34.5195 25.7215 35.6331ZM35.2815 26.6331L28.7315 26.6548C26.5629 26.6576 24.6447 28.0617 23.9865 30.1281L21.9282 36.5448C20.6477 36.707 19.3519 36.707 18.0715 36.5448L16.0132 30.1264C15.3543 28.0601 13.4354 26.6566 11.2665 26.6548L4.71818 26.6348C4.21419 25.472 3.84568 24.2551 3.61982 23.0081L8.86818 19.3098C10.6422 18.0646 11.4089 15.816 10.7648 13.7464L8.87318 7.62641C9.82911 6.75773 10.8829 6.0032 12.0132 5.37805L17.0598 9.04469C18.8115 10.3227 21.1881 10.3227 22.9398 9.04469L27.9865 5.37805C29.1165 6.00359 30.1702 6.75805 31.1265 7.62641L29.2348 13.7464C28.5908 15.8159 29.3574 18.0645 31.1315 19.3098L36.3798 23.0081C36.1542 24.2546 35.7856 25.4709 35.2815 26.6331Z" fill="#FBB03B"/>
<path d="M25.643 15.3727L22.448 13.0527C20.9895 11.9877 19.0098 11.9877 17.5514 13.0527L14.3564 15.3727C12.8894 16.4326 12.2773 18.3202 12.843 20.0393L14.063 23.7943C14.6206 25.5097 16.2209 26.6697 18.0247 26.666H21.9747C23.7802 26.6661 25.3805 25.5033 25.938 23.786L27.1564 20.031C27.7186 18.3143 27.1068 16.4311 25.643 15.3727ZM23.9863 19.0009L22.7679 22.756C22.6566 23.0999 22.3362 23.3328 21.9746 23.3326H18.0246C17.6636 23.3321 17.3441 23.0993 17.2329 22.756L16.013 18.9993C15.9008 18.6553 16.0233 18.2782 16.3164 18.0659L19.5097 15.7493C19.8019 15.537 20.1976 15.537 20.4897 15.7493L23.6847 18.0693C23.9763 18.2818 24.0981 18.6578 23.9863 19.0009Z" fill="#FBB03B"/>
</g>
<defs>
<clipPath id="clip0_694_566">
<rect width="40" height="40" fill="white"/>
</clipPath>
</defs>
</svg>
