<svg width="40" height="40" viewBox="0 0 40 40" fill="none" xmlns="http://www.w3.org/2000/svg">
<g clip-path="url(#clip0_694_586)">
<path d="M38.3331 18.3343H34.9997V15.001C34.9997 14.559 34.8242 14.1351 34.5116 13.8225C34.199 13.5099 33.7751 13.3344 33.3331 13.3344C32.8911 13.3344 32.4671 13.5099 32.1546 13.8225C31.842 14.1351 31.6664 14.559 31.6664 15.001V18.3343H28.3331C27.8911 18.3343 27.4671 18.5099 27.1546 18.8225C26.842 19.1351 26.6664 19.559 26.6664 20.001C26.6664 20.443 26.842 20.867 27.1546 21.1795C27.4671 21.4921 27.8911 21.6677 28.3331 21.6677H31.6664V25.001C31.6664 25.443 31.842 25.8669 32.1546 26.1795C32.4671 26.4921 32.8911 26.6677 33.3331 26.6677C33.7751 26.6677 34.199 26.4921 34.5116 26.1795C34.8242 25.8669 34.9997 25.443 34.9997 25.001V21.6677H38.3331C38.7751 21.6677 39.199 21.4921 39.5116 21.1795C39.8241 20.867 39.9997 20.443 39.9997 20.001C39.9997 19.559 39.8241 19.1351 39.5116 18.8225C39.199 18.5099 38.7751 18.3343 38.3331 18.3343Z" fill="#FBB03B"/>
<path d="M15 19.9999C16.9778 19.9999 18.9112 19.4134 20.5557 18.3146C22.2002 17.2158 23.4819 15.654 24.2388 13.8267C24.9957 11.9995 25.1937 9.98879 24.8078 8.04898C24.422 6.10917 23.4696 4.32734 22.0711 2.92881C20.6725 1.53029 18.8907 0.577882 16.9509 0.19203C15.0111 -0.193823 13.0004 0.00421079 11.1732 0.761087C9.34589 1.51796 7.7841 2.79969 6.68529 4.44418C5.58647 6.08867 4.99998 8.02207 4.99998 9.99988C5.00263 12.6512 6.05705 15.1932 7.93184 17.068C9.80663 18.9428 12.3486 19.9972 15 19.9999ZM15 3.33322C16.3185 3.33322 17.6075 3.72421 18.7038 4.45675C19.8001 5.18929 20.6546 6.23049 21.1592 7.44866C21.6638 8.66683 21.7958 10.0073 21.5386 11.3005C21.2813 12.5937 20.6464 13.7816 19.714 14.7139C18.7817 15.6463 17.5938 16.2812 16.3006 16.5385C15.0074 16.7957 13.6669 16.6637 12.4488 16.1591C11.2306 15.6545 10.1894 14.8 9.45685 13.7037C8.72431 12.6074 8.33332 11.3184 8.33332 9.99988C8.33332 8.23177 9.0357 6.53608 10.2859 5.28584C11.5362 4.03559 13.2319 3.33322 15 3.33322Z" fill="#FBB03B"/>
<path d="M15 23.3344C11.0231 23.3388 7.21034 24.9205 4.39825 27.7326C1.58617 30.5447 0.00439616 34.3575 -1.52588e-05 38.3343C-1.52588e-05 38.7764 0.17558 39.2003 0.48814 39.5129C0.800701 39.8254 1.22462 40.001 1.66665 40.001C2.10868 40.001 2.5326 39.8254 2.84516 39.5129C3.15772 39.2003 3.33332 38.7764 3.33332 38.3343C3.33332 35.2402 4.56248 32.2727 6.75041 30.0848C8.93833 27.8968 11.9058 26.6677 15 26.6677C18.0942 26.6677 21.0616 27.8968 23.2496 30.0848C25.4375 32.2727 26.6667 35.2402 26.6667 38.3343C26.6667 38.7764 26.8422 39.2003 27.1548 39.5129C27.4674 39.8254 27.8913 40.001 28.3333 40.001C28.7753 40.001 29.1993 39.8254 29.5118 39.5129C29.8244 39.2003 30 38.7764 30 38.3343C29.9956 34.3575 28.4138 30.5447 25.6017 27.7326C22.7896 24.9205 18.9769 23.3388 15 23.3344Z" fill="#FBB03B"/>
</g>
<defs>
<clipPath id="clip0_694_586">
<rect width="40" height="40" fill="white"/>
</clipPath>
</defs>
</svg>
