<svg width="16" height="16" viewBox="0 0 16 16" fill="none" xmlns="http://www.w3.org/2000/svg">
<g clip-path="url(#clip0_2060_393)">
<path d="M15.8403 4.79995C15.8403 4.79995 15.684 3.69683 15.2028 3.21245C14.5934 2.57495 13.9122 2.57183 13.5997 2.53433C11.3622 2.37183 8.00279 2.37183 8.00279 2.37183H7.99654C7.99654 2.37183 4.63716 2.37183 2.39966 2.53433C2.08716 2.57183 1.40591 2.57495 0.796539 3.21245C0.315289 3.69683 0.162164 4.79995 0.162164 4.79995C0.162164 4.79995 -0.000335693 6.09683 -0.000335693 7.39058V8.60308C-0.000335693 9.89683 0.159039 11.1937 0.159039 11.1937C0.159039 11.1937 0.315289 12.2968 0.793414 12.7812C1.40279 13.4187 2.20279 13.3968 2.55904 13.4656C3.84029 13.5875 7.99966 13.625 7.99966 13.625C7.99966 13.625 11.3622 13.6187 13.5997 13.4593C13.9122 13.4218 14.5934 13.4187 15.2028 12.7812C15.684 12.2968 15.8403 11.1937 15.8403 11.1937C15.8403 11.1937 15.9997 9.89995 15.9997 8.60308V7.39058C15.9997 6.09683 15.8403 4.79995 15.8403 4.79995ZM6.34654 10.075V5.57808L10.6684 7.83433L6.34654 10.075Z" fill="white"/>
</g>
<defs>
<clipPath id="clip0_2060_393">
<rect width="16" height="16" fill="white"/>
</clipPath>
</defs>
</svg>
